G04 #@! TF.GenerationSoftware,KiCad,Pcbnew,no-vcs-found-5e5259b~58~ubuntu14.04.1*
G04 #@! TF.CreationDate,2017-03-12T23:03:18+01:00*
G04 #@! TF.ProjectId,Wifi_PB,576966695F50422E6B696361645F7063,V0.1*
G04 #@! TF.FileFunction,Soldermask,Top*
G04 #@! TF.FilePolarity,Negative*
%FSLAX46Y46*%
G04 Gerber Fmt 4.6, Leading zero omitted, Abs format (unit mm)*
G04 Created by KiCad (PCBNEW no-vcs-found-5e5259b~58~ubuntu14.04.1) date Sun Mar 12 23:03:18 2017*
%MOMM*%
%LPD*%
G01*
G04 APERTURE LIST*
%ADD10C,0.100000*%
%ADD11O,1.778000X1.454000*%
%ADD12R,0.854000X1.754000*%
%ADD13O,1.354000X2.754000*%
%ADD14O,2.654000X1.354000*%
%ADD15R,1.354000X2.754000*%
%ADD16O,1.854000X2.254000*%
%ADD17R,1.504000X1.254000*%
%ADD18R,1.254000X1.504000*%
%ADD19R,2.754000X1.254000*%
%ADD20R,1.454000X1.454000*%
%ADD21O,1.154000X1.554000*%
%ADD22R,1.154000X1.554000*%
%ADD23R,1.954000X1.954000*%
%ADD24O,1.954000X1.954000*%
%ADD25R,3.754000X3.754000*%
%ADD26R,1.154000X1.054000*%
%ADD27R,1.254000X1.554000*%
%ADD28R,1.554000X1.254000*%
%ADD29O,1.654000X2.254000*%
%ADD30O,2.754000X3.054000*%
%ADD31R,2.754000X1.854000*%
%ADD32R,3.754000X1.854000*%
%ADD33R,4.254000X2.304000*%
%ADD34R,3.754000X2.304000*%
%ADD35C,1.254000*%
%ADD36R,2.504000X0.754000*%
%ADD37C,1.104000*%
%ADD38R,1.104000X1.104000*%
%ADD39R,0.554000X1.854000*%
%ADD40C,1.454000*%
G04 APERTURE END LIST*
D10*
D11*
X109000000Y-40920000D03*
X109000000Y-43460000D03*
X109000000Y-46000000D03*
X109000000Y-48540000D03*
X109000000Y-51080000D03*
X109000000Y-53620000D03*
X116620000Y-40920000D03*
X116620000Y-43460000D03*
X116620000Y-46000000D03*
X116620000Y-48540000D03*
X116620000Y-51080000D03*
X116620000Y-53620000D03*
D12*
X82445000Y-49700000D03*
X81175000Y-49700000D03*
X79905000Y-49700000D03*
X78635000Y-49700000D03*
X77365000Y-49700000D03*
X76095000Y-49700000D03*
X74825000Y-49700000D03*
X73555000Y-49700000D03*
X73555000Y-44300000D03*
X74825000Y-44300000D03*
X76095000Y-44300000D03*
X77365000Y-44300000D03*
X78635000Y-44300000D03*
X79905000Y-44300000D03*
X81175000Y-44300000D03*
X82445000Y-44300000D03*
D13*
X63000000Y-58300000D03*
X65000000Y-58300000D03*
X67000000Y-58300000D03*
X69000000Y-58300000D03*
X71000000Y-58300000D03*
X73000000Y-58300000D03*
X75000000Y-58400000D03*
X77000000Y-58300000D03*
D14*
X78750000Y-61010000D03*
X78750000Y-63010000D03*
X78750000Y-65010000D03*
X78750000Y-67010000D03*
X78750000Y-69010000D03*
X78750000Y-71010000D03*
D13*
X77000000Y-73700000D03*
X75000000Y-73700000D03*
X73000000Y-73700000D03*
X71000000Y-73700000D03*
X69000000Y-73700000D03*
X67000000Y-73700000D03*
X65000000Y-73700000D03*
D15*
X63000000Y-73700000D03*
D16*
X101000000Y-46000000D03*
X91000000Y-46000000D03*
D17*
X82450000Y-54000000D03*
X82450000Y-52000000D03*
D18*
X80630000Y-40990000D03*
X78630000Y-40990000D03*
X81200000Y-67000000D03*
X83200000Y-67000000D03*
D19*
X81500000Y-76500000D03*
X81500000Y-73500000D03*
D17*
X65000000Y-45000000D03*
X65000000Y-43000000D03*
X65000000Y-47000000D03*
X65000000Y-49000000D03*
X65000000Y-53000000D03*
X65000000Y-51000000D03*
D20*
X65100000Y-79000000D03*
X62900000Y-79000000D03*
X93900000Y-66000000D03*
X96100000Y-66000000D03*
X110100000Y-61000000D03*
X107900000Y-61000000D03*
X121900000Y-66000000D03*
X124100000Y-66000000D03*
X110100000Y-71000000D03*
X107900000Y-71000000D03*
D21*
X139000000Y-40000000D03*
D22*
X140270000Y-40000000D03*
D21*
X137730000Y-40000000D03*
X141540000Y-40000000D03*
D23*
X124210000Y-40000000D03*
D24*
X126750000Y-40000000D03*
X129290000Y-40000000D03*
X129290000Y-44000000D03*
X126750000Y-44000000D03*
D23*
X124210000Y-44000000D03*
X124210000Y-48000000D03*
D24*
X126750000Y-48000000D03*
X129290000Y-48000000D03*
X129290000Y-52000000D03*
X126750000Y-52000000D03*
D23*
X124210000Y-52000000D03*
D25*
X80000000Y-81700000D03*
X87000000Y-81700000D03*
X94000000Y-81700000D03*
X101000000Y-81700000D03*
X73000000Y-81700000D03*
D23*
X150000000Y-68460000D03*
D24*
X150000000Y-71000000D03*
X150000000Y-73540000D03*
X150000000Y-76080000D03*
X150000000Y-51080000D03*
X150000000Y-48540000D03*
X150000000Y-46000000D03*
D23*
X150000000Y-43460000D03*
D25*
X108000000Y-81700000D03*
X115000000Y-81700000D03*
X122000000Y-81700000D03*
X129000000Y-81700000D03*
D26*
X80075000Y-56200000D03*
X80075000Y-58100000D03*
X82075000Y-57150000D03*
X73500000Y-53000000D03*
X75500000Y-52050000D03*
X75500000Y-53950000D03*
D27*
X83200000Y-65000000D03*
X81200000Y-65000000D03*
X81200000Y-63000000D03*
X83200000Y-63000000D03*
X83200000Y-71000000D03*
X81200000Y-71000000D03*
X81200000Y-69000000D03*
X83200000Y-69000000D03*
X83200000Y-61000000D03*
X81200000Y-61000000D03*
X64250000Y-55250000D03*
X66250000Y-55250000D03*
X70250000Y-55250000D03*
X68250000Y-55250000D03*
D28*
X77750000Y-52000000D03*
X77750000Y-54000000D03*
X80075000Y-52000000D03*
X80075000Y-54000000D03*
D27*
X70000000Y-48000000D03*
X68000000Y-48000000D03*
X68000000Y-51000000D03*
X70000000Y-51000000D03*
D29*
X141000000Y-81000000D03*
X138500000Y-81000000D03*
X143500000Y-81000000D03*
D30*
X136400000Y-77700000D03*
X145600000Y-77700000D03*
D31*
X112750000Y-74000000D03*
X105250000Y-74000000D03*
X119250000Y-69000000D03*
X126750000Y-69000000D03*
X112750000Y-64000000D03*
X105250000Y-64000000D03*
X91250000Y-69000000D03*
X98750000Y-69000000D03*
D32*
X69000000Y-39561600D03*
X69000000Y-44438400D03*
D33*
X57075000Y-53125000D03*
X57075000Y-43275000D03*
D34*
X61325000Y-53125000D03*
X61325000Y-43275000D03*
D35*
X59000000Y-46000000D03*
X59000000Y-50400000D03*
D36*
X61325000Y-49800000D03*
X61325000Y-49000000D03*
X61325000Y-46600000D03*
X61325000Y-47400000D03*
X61325000Y-48200000D03*
D37*
X63750000Y-82000000D03*
D38*
X65000000Y-82000000D03*
D24*
X150000000Y-56480000D03*
X150000000Y-59020000D03*
X150000000Y-61560000D03*
D23*
X150000000Y-64100000D03*
D39*
X75150000Y-41000000D03*
X74200000Y-41000000D03*
X73250000Y-41000000D03*
D40*
X142680000Y-69360000D03*
X139280000Y-69360000D03*
M02*
