M48
;DRILL file {KiCad no-vcs-found-7650~57~ubuntu14.04.1} date Mon Feb 13 23:43:56 2017
;FORMAT={-:-/ absolute / metric / decimal}
FMAT,2
METRIC,TZ
T1C0.300
T2C0.500
T3C0.600
T4C1.000
T5C1.800
T6C2.500
T7C3.200
T8C1.000
%
G90
G05
M71
T1
X61.7Y-76.7
X62.41Y-55.1
X62.86Y-76.66
X64.Y-61.48
X64.08Y-69.04
X64.25Y-41.51
X66.69Y-79.
X67.62Y-46.51
X67.85Y-67.48
X68.51Y-63.04
X71.39Y-43.
X73.79Y-72.05
X74.11Y-56.35
X76.37Y-67.14
X76.42Y-55.79
X76.42Y-62.94
X76.44Y-68.24
X76.64Y-40.7
X76.77Y-65.21
X77.Y-79.38
X77.59Y-56.16
X78.39Y-57.87
X79.Y-76.5
X82.44Y-47.09
X83.85Y-50.29
X84.Y-79.58
X84.23Y-76.79
X84.54Y-64.16
X85.02Y-73.16
X85.03Y-61.97
X85.049Y-66.05
X85.13Y-59.87
X85.14Y-68.
X85.19Y-71.93
X85.26Y-68.97
X85.31Y-69.96
X86.8Y-47.98
X86.88Y-62.08
X88.93Y-60.1
X88.94Y-57.26
X89.01Y-54.1
X89.44Y-58.56
X89.46Y-71.079
X89.59Y-56.67
X89.64Y-53.4
X90.48Y-72.09
X91.Y-79.58
X91.1Y-70.73
X91.15Y-54.94
X91.37Y-56.28
X91.77Y-67.48
X91.79Y-61.
X92.33Y-71.01
X92.54Y-64.65
X92.56Y-62.39
X92.74Y-72.56
X92.909Y-73.37
X96.16Y-67.9
X96.25Y-74.325
X96.47Y-49.99
X97.425Y-74.425
X98.Y-79.58
X99.31Y-60.
X100.12Y-74.83
X101.99Y-73.99
X102.15Y-66.02
X102.69Y-76.08
X103.45Y-69.92
X104.09Y-61.45
X104.82Y-69.85
X104.99Y-77.443
X104.99Y-79.669
X105.2Y-71.33
X105.6Y-52.34
X108.56Y-65.02
X109.84Y-66.17
X110.27Y-77.51
X110.37Y-74.61
X110.48Y-50.02
X110.68Y-67.79
X112.Y-79.62
X112.23Y-69.48
X113.04Y-71.78
X113.62Y-71.07
X113.63Y-66.11
X115.35Y-78.03
X115.45Y-67.79
X116.85Y-65.1
X119.Y-79.61
X120.6Y-60.25
X121.09Y-67.6
X123.22Y-54.18
X123.4Y-56.2
X123.41Y-55.35
X124.59Y-74.03
X125.03Y-61.69
X125.15Y-63.45
X125.65Y-65.08
X126.Y-79.54
X126.16Y-74.64
X129.89Y-65.99
X130.17Y-74.08
X130.898Y-73.426
X131.68Y-54.77
X131.7Y-60.24
X135.23Y-62.31
X137.03Y-60.83
X137.37Y-62.95
X142.325Y-53.
X143.06Y-56.87
T2
X61.Y-40.35
X63.75Y-82.
X65.Y-82.
X81.48Y-74.74
X132.55Y-37.47
T3
X109.Y-40.92
X109.Y-43.46
X109.Y-46.
X109.Y-48.54
X109.Y-51.08
X109.Y-53.62
X116.62Y-40.92
X116.62Y-43.46
X116.62Y-46.
X116.62Y-48.54
X116.62Y-51.08
X116.62Y-53.62
X137.73Y-40.
X139.Y-40.
X139.28Y-69.36
X140.27Y-40.
X141.54Y-40.
X142.68Y-69.36
T4
X91.Y-46.
X101.Y-46.
X124.21Y-40.
X124.21Y-44.
X124.21Y-48.
X124.21Y-52.
X126.75Y-40.
X126.75Y-44.
X126.75Y-48.
X126.75Y-52.
X129.29Y-40.
X129.29Y-44.
X129.29Y-48.
X129.29Y-52.
X138.5Y-81.
X141.Y-81.
X143.5Y-81.
X150.Y-43.46
X150.Y-46.
X150.Y-48.54
X150.Y-51.08
X150.Y-56.48
X150.Y-59.02
X150.Y-61.56
X150.Y-64.1
X150.Y-68.46
X150.Y-71.
X150.Y-73.54
X150.Y-76.08
T6
X73.Y-81.7
X80.Y-81.7
X87.Y-81.7
X94.Y-81.7
X101.Y-81.7
X108.Y-81.7
X115.Y-81.7
X122.Y-81.7
X129.Y-81.7
T7
X57.Y-38.
X57.Y-81.7
X151.Y-38.
X151.Y-81.7
T8
X59.Y-46.
X59.Y-50.4
T5
X136.4Y-77.55G85X136.4Y-77.85
G05
X145.6Y-77.55G85X145.6Y-77.85
G05
T0
M30
