G04 #@! TF.GenerationSoftware,KiCad,Pcbnew,no-vcs-found-5e5259b~58~ubuntu14.04.1*
G04 #@! TF.CreationDate,2017-03-12T23:03:18+01:00*
G04 #@! TF.ProjectId,Wifi_PB,576966695F50422E6B696361645F7063,V0.1*
G04 #@! TF.FileFunction,Paste,Bot*
G04 #@! TF.FilePolarity,Positive*
%FSLAX46Y46*%
G04 Gerber Fmt 4.6, Leading zero omitted, Abs format (unit mm)*
G04 Created by KiCad (PCBNEW no-vcs-found-5e5259b~58~ubuntu14.04.1) date Sun Mar 12 23:03:18 2017*
%MOMM*%
%LPD*%
G01*
G04 APERTURE LIST*
%ADD10C,0.100000*%
%ADD11R,1.060000X0.650000*%
%ADD12R,1.750000X0.450000*%
%ADD13R,0.650000X0.300000*%
%ADD14R,1.500000X0.600000*%
%ADD15R,1.600000X1.000000*%
%ADD16R,1.250000X1.000000*%
%ADD17R,1.000000X1.600000*%
%ADD18R,1.000000X1.250000*%
%ADD19C,1.200000*%
%ADD20R,0.800000X0.900000*%
%ADD21R,0.900000X0.800000*%
%ADD22R,1.000000X1.300000*%
%ADD23R,1.300000X1.000000*%
%ADD24R,0.650000X1.060000*%
%ADD25R,1.500000X2.000000*%
%ADD26R,3.800000X2.000000*%
%ADD27R,0.910000X1.220000*%
%ADD28R,1.450000X0.450000*%
G04 APERTURE END LIST*
D10*
D11*
X72100000Y-49000000D03*
X72100000Y-49950000D03*
X72100000Y-48050000D03*
X69900000Y-48050000D03*
X69900000Y-49000000D03*
X69900000Y-49950000D03*
D12*
X94400000Y-61225000D03*
X94400000Y-60575000D03*
X94400000Y-59925000D03*
X94400000Y-59275000D03*
X94400000Y-58625000D03*
X94400000Y-57975000D03*
X94400000Y-57325000D03*
X94400000Y-56675000D03*
X94400000Y-56025000D03*
X94400000Y-55375000D03*
X94400000Y-54725000D03*
X94400000Y-54075000D03*
X94400000Y-53425000D03*
X94400000Y-52775000D03*
X87200000Y-52775000D03*
X87200000Y-53425000D03*
X87200000Y-54075000D03*
X87200000Y-54725000D03*
X87200000Y-55375000D03*
X87200000Y-56025000D03*
X87200000Y-56675000D03*
X87200000Y-57325000D03*
X87200000Y-57975000D03*
X87200000Y-58625000D03*
X87200000Y-59275000D03*
X87200000Y-59925000D03*
X87200000Y-60575000D03*
X87200000Y-61225000D03*
X87200000Y-75225000D03*
X87200000Y-74575000D03*
X87200000Y-73925000D03*
X87200000Y-73275000D03*
X87200000Y-72625000D03*
X87200000Y-71975000D03*
X87200000Y-71325000D03*
X87200000Y-70675000D03*
X87200000Y-70025000D03*
X87200000Y-69375000D03*
X87200000Y-68725000D03*
X87200000Y-68075000D03*
X87200000Y-67425000D03*
X87200000Y-66775000D03*
X94400000Y-66775000D03*
X94400000Y-67425000D03*
X94400000Y-68075000D03*
X94400000Y-68725000D03*
X94400000Y-69375000D03*
X94400000Y-70025000D03*
X94400000Y-70675000D03*
X94400000Y-71325000D03*
X94400000Y-71975000D03*
X94400000Y-72625000D03*
X94400000Y-73275000D03*
X94400000Y-73925000D03*
X94400000Y-74575000D03*
X94400000Y-75225000D03*
D13*
X111450000Y-69500000D03*
X111450000Y-70000000D03*
X111450000Y-70500000D03*
X111450000Y-71000000D03*
X111450000Y-71500000D03*
X114550000Y-71500000D03*
X114550000Y-71000000D03*
X114550000Y-70500000D03*
X114550000Y-70000000D03*
X114550000Y-69500000D03*
D14*
X128300000Y-68190000D03*
X128300000Y-69460000D03*
X128300000Y-70730000D03*
X128300000Y-72000000D03*
X128300000Y-73270000D03*
X128300000Y-74540000D03*
X128300000Y-75810000D03*
X133700000Y-75810000D03*
X133700000Y-74540000D03*
X133700000Y-73270000D03*
X133700000Y-72000000D03*
X133700000Y-70730000D03*
X133700000Y-69460000D03*
X133700000Y-68190000D03*
D15*
X64000000Y-75500000D03*
X64000000Y-72500000D03*
D16*
X64000000Y-63150000D03*
X64000000Y-65150000D03*
D15*
X74500000Y-65500000D03*
X74500000Y-62500000D03*
X72000000Y-75500000D03*
X72000000Y-72500000D03*
D17*
X65500000Y-41500000D03*
X62500000Y-41500000D03*
D18*
X109000000Y-68000000D03*
X107000000Y-68000000D03*
X117000000Y-68000000D03*
X119000000Y-68000000D03*
D17*
X93800000Y-50000000D03*
X90800000Y-50000000D03*
X90800000Y-64000000D03*
X93800000Y-64000000D03*
D18*
X86800000Y-50000000D03*
X88800000Y-50000000D03*
X86800000Y-64000000D03*
X88800000Y-64000000D03*
X122600000Y-70000000D03*
X124600000Y-70000000D03*
X124600000Y-68000000D03*
X122600000Y-68000000D03*
D17*
X128300000Y-65980000D03*
X131300000Y-65980000D03*
D18*
X131951854Y-62749480D03*
X133951854Y-62749480D03*
X131750000Y-40000000D03*
X133750000Y-40000000D03*
X133750000Y-44000000D03*
X131750000Y-44000000D03*
X131750000Y-48000000D03*
X133750000Y-48000000D03*
X133750000Y-52000000D03*
X131750000Y-52000000D03*
X145500000Y-68000000D03*
X147500000Y-68000000D03*
X139000000Y-53000000D03*
X141000000Y-53000000D03*
X147500000Y-72000000D03*
X145500000Y-72000000D03*
X147500000Y-46000000D03*
X145500000Y-46000000D03*
X147500000Y-50000000D03*
X145500000Y-50000000D03*
D15*
X75190000Y-47490000D03*
X75190000Y-50490000D03*
X73000000Y-45000000D03*
X73000000Y-42000000D03*
D10*
G36*
X73045881Y-51900289D02*
X73051705Y-51901153D01*
X73057417Y-51902584D01*
X73062961Y-51904567D01*
X73068284Y-51907085D01*
X73073334Y-51910112D01*
X73078064Y-51913619D01*
X73082426Y-51917574D01*
X73086381Y-51921936D01*
X73089888Y-51926666D01*
X73092915Y-51931716D01*
X73095433Y-51937039D01*
X73097416Y-51942583D01*
X73098847Y-51948295D01*
X73099711Y-51954119D01*
X73100000Y-51960000D01*
X73100000Y-56040000D01*
X73099711Y-56045881D01*
X73098847Y-56051705D01*
X73097416Y-56057417D01*
X73095433Y-56062961D01*
X73092915Y-56068284D01*
X73089888Y-56073334D01*
X73086381Y-56078064D01*
X73082426Y-56082426D01*
X73078064Y-56086381D01*
X73073334Y-56089888D01*
X73068284Y-56092915D01*
X73062961Y-56095433D01*
X73057417Y-56097416D01*
X73051705Y-56098847D01*
X73045881Y-56099711D01*
X73040000Y-56100000D01*
X71960000Y-56100000D01*
X71954119Y-56099711D01*
X71948295Y-56098847D01*
X71942583Y-56097416D01*
X71937039Y-56095433D01*
X71931716Y-56092915D01*
X71926666Y-56089888D01*
X71921936Y-56086381D01*
X71917574Y-56082426D01*
X71913619Y-56078064D01*
X71910112Y-56073334D01*
X71907085Y-56068284D01*
X71904567Y-56062961D01*
X71902584Y-56057417D01*
X71901153Y-56051705D01*
X71900289Y-56045881D01*
X71900000Y-56040000D01*
X71900000Y-51960000D01*
X71900289Y-51954119D01*
X71901153Y-51948295D01*
X71902584Y-51942583D01*
X71904567Y-51937039D01*
X71907085Y-51931716D01*
X71910112Y-51926666D01*
X71913619Y-51921936D01*
X71917574Y-51917574D01*
X71921936Y-51913619D01*
X71926666Y-51910112D01*
X71931716Y-51907085D01*
X71937039Y-51904567D01*
X71942583Y-51902584D01*
X71948295Y-51901153D01*
X71954119Y-51900289D01*
X71960000Y-51900000D01*
X73040000Y-51900000D01*
X73045881Y-51900289D01*
X73045881Y-51900289D01*
G37*
D19*
X72500000Y-54000000D03*
D10*
G36*
X70045881Y-51900289D02*
X70051705Y-51901153D01*
X70057417Y-51902584D01*
X70062961Y-51904567D01*
X70068284Y-51907085D01*
X70073334Y-51910112D01*
X70078064Y-51913619D01*
X70082426Y-51917574D01*
X70086381Y-51921936D01*
X70089888Y-51926666D01*
X70092915Y-51931716D01*
X70095433Y-51937039D01*
X70097416Y-51942583D01*
X70098847Y-51948295D01*
X70099711Y-51954119D01*
X70100000Y-51960000D01*
X70100000Y-56040000D01*
X70099711Y-56045881D01*
X70098847Y-56051705D01*
X70097416Y-56057417D01*
X70095433Y-56062961D01*
X70092915Y-56068284D01*
X70089888Y-56073334D01*
X70086381Y-56078064D01*
X70082426Y-56082426D01*
X70078064Y-56086381D01*
X70073334Y-56089888D01*
X70068284Y-56092915D01*
X70062961Y-56095433D01*
X70057417Y-56097416D01*
X70051705Y-56098847D01*
X70045881Y-56099711D01*
X70040000Y-56100000D01*
X68960000Y-56100000D01*
X68954119Y-56099711D01*
X68948295Y-56098847D01*
X68942583Y-56097416D01*
X68937039Y-56095433D01*
X68931716Y-56092915D01*
X68926666Y-56089888D01*
X68921936Y-56086381D01*
X68917574Y-56082426D01*
X68913619Y-56078064D01*
X68910112Y-56073334D01*
X68907085Y-56068284D01*
X68904567Y-56062961D01*
X68902584Y-56057417D01*
X68901153Y-56051705D01*
X68900289Y-56045881D01*
X68900000Y-56040000D01*
X68900000Y-51960000D01*
X68900289Y-51954119D01*
X68901153Y-51948295D01*
X68902584Y-51942583D01*
X68904567Y-51937039D01*
X68907085Y-51931716D01*
X68910112Y-51926666D01*
X68913619Y-51921936D01*
X68917574Y-51917574D01*
X68921936Y-51913619D01*
X68926666Y-51910112D01*
X68931716Y-51907085D01*
X68937039Y-51904567D01*
X68942583Y-51902584D01*
X68948295Y-51901153D01*
X68954119Y-51900289D01*
X68960000Y-51900000D01*
X70040000Y-51900000D01*
X70045881Y-51900289D01*
X70045881Y-51900289D01*
G37*
D19*
X69500000Y-54000000D03*
D20*
X108000000Y-74000000D03*
X108950000Y-72000000D03*
X107050000Y-72000000D03*
X117050000Y-72000000D03*
X118950000Y-72000000D03*
X118000000Y-74000000D03*
X107550000Y-61450000D03*
X105650000Y-61450000D03*
X106600000Y-59450000D03*
X111550000Y-61450000D03*
X109650000Y-61450000D03*
X110600000Y-59450000D03*
X114600000Y-59450000D03*
X113650000Y-61450000D03*
X115550000Y-61450000D03*
X119550000Y-61450000D03*
X117650000Y-61450000D03*
X118600000Y-59450000D03*
X122600000Y-59450000D03*
X121650000Y-61450000D03*
X123550000Y-61450000D03*
D21*
X66500000Y-47100000D03*
X64500000Y-46150000D03*
X64500000Y-48050000D03*
D20*
X78000000Y-41600000D03*
X77050000Y-43600000D03*
X78950000Y-43600000D03*
D22*
X65340000Y-79000000D03*
X63340000Y-79000000D03*
X68900000Y-71000000D03*
X66900000Y-71000000D03*
X107000000Y-70000000D03*
X109000000Y-70000000D03*
X117000000Y-70000000D03*
X119000000Y-70000000D03*
X107000000Y-76000000D03*
X109000000Y-76000000D03*
X119000000Y-76000000D03*
X117000000Y-76000000D03*
X119750000Y-40000000D03*
X121750000Y-40000000D03*
X121750000Y-44000000D03*
X119750000Y-44000000D03*
X119750000Y-48000000D03*
X121750000Y-48000000D03*
X121750000Y-52000000D03*
X119750000Y-52000000D03*
X98300000Y-65000000D03*
X100300000Y-65000000D03*
X80800000Y-67000000D03*
X82800000Y-67000000D03*
X82800000Y-65000000D03*
X80800000Y-65000000D03*
X80800000Y-63000000D03*
X82800000Y-63000000D03*
X82800000Y-61000000D03*
X80800000Y-61000000D03*
X98300000Y-53000000D03*
X100300000Y-53000000D03*
X98300000Y-57000000D03*
X100300000Y-57000000D03*
X100300000Y-61000000D03*
X98300000Y-61000000D03*
X105600000Y-63450000D03*
X107600000Y-63450000D03*
X111600000Y-63450000D03*
X109600000Y-63450000D03*
X100300000Y-51000000D03*
X98300000Y-51000000D03*
X100300000Y-55000000D03*
X98300000Y-55000000D03*
X98300000Y-59000000D03*
X100300000Y-59000000D03*
X100300000Y-63000000D03*
X98300000Y-63000000D03*
X115600000Y-63450000D03*
X113600000Y-63450000D03*
X117600000Y-63450000D03*
X119600000Y-63450000D03*
X121600000Y-63450000D03*
X123600000Y-63450000D03*
X100300000Y-71000000D03*
X98300000Y-71000000D03*
X80800000Y-53000000D03*
X82800000Y-53000000D03*
X80800000Y-55000000D03*
X82800000Y-55000000D03*
X82800000Y-57000000D03*
X80800000Y-57000000D03*
X80800000Y-59000000D03*
X82800000Y-59000000D03*
D23*
X77000000Y-82700000D03*
X77000000Y-80700000D03*
X84000000Y-80700000D03*
X84000000Y-82700000D03*
X91000000Y-82700000D03*
X91000000Y-80700000D03*
X98000000Y-80700000D03*
X98000000Y-82700000D03*
D22*
X145500000Y-70000000D03*
X147500000Y-70000000D03*
X147500000Y-74000000D03*
X145500000Y-74000000D03*
X147500000Y-48000000D03*
X145500000Y-48000000D03*
X145500000Y-52000000D03*
X147500000Y-52000000D03*
X98300000Y-49000000D03*
X100300000Y-49000000D03*
D23*
X61500000Y-45000000D03*
X61500000Y-47000000D03*
X61500000Y-52000000D03*
X61500000Y-50000000D03*
D22*
X64500000Y-51700000D03*
X66500000Y-51700000D03*
X70000000Y-45000000D03*
X68000000Y-45000000D03*
X70000000Y-41500000D03*
X68000000Y-41500000D03*
D23*
X78990000Y-47390000D03*
X78990000Y-49390000D03*
D22*
X98300000Y-67000000D03*
X100300000Y-67000000D03*
X100300000Y-69000000D03*
X98300000Y-69000000D03*
X98300000Y-73000000D03*
X100300000Y-73000000D03*
D23*
X140650000Y-45750000D03*
X140650000Y-43750000D03*
X136650000Y-43750000D03*
X136650000Y-45750000D03*
X138650000Y-43750000D03*
X138650000Y-45750000D03*
X105000000Y-82700000D03*
X105000000Y-80700000D03*
X112000000Y-80700000D03*
X112000000Y-82700000D03*
X119000000Y-82700000D03*
X119000000Y-80700000D03*
X126000000Y-80700000D03*
X126000000Y-82700000D03*
D24*
X68950000Y-73900000D03*
X67050000Y-73900000D03*
X67050000Y-76100000D03*
X68000000Y-76100000D03*
X68950000Y-76100000D03*
D25*
X71300000Y-65150000D03*
X66700000Y-65150000D03*
X69000000Y-65150000D03*
D26*
X69000000Y-58850000D03*
D27*
X71865000Y-39500000D03*
X75135000Y-39500000D03*
D23*
X136670000Y-73040000D03*
X136670000Y-71040000D03*
D22*
X126000000Y-76000000D03*
X124000000Y-76000000D03*
D14*
X144690000Y-64310000D03*
X144690000Y-63040000D03*
X144690000Y-61770000D03*
X144690000Y-60500000D03*
X144690000Y-59230000D03*
X144690000Y-57960000D03*
X144690000Y-56690000D03*
X139290000Y-56690000D03*
X139290000Y-57960000D03*
X139290000Y-59230000D03*
X139290000Y-60500000D03*
X139290000Y-61770000D03*
X139290000Y-63040000D03*
X139290000Y-64310000D03*
D28*
X133901854Y-60920000D03*
X133901854Y-60270000D03*
X133901854Y-59620000D03*
X133901854Y-58970000D03*
X133901854Y-58320000D03*
X133901854Y-57670000D03*
X133901854Y-57020000D03*
X133901854Y-56370000D03*
X133901854Y-55720000D03*
X133901854Y-55070000D03*
X128001854Y-55070000D03*
X128001854Y-55720000D03*
X128001854Y-56370000D03*
X128001854Y-57020000D03*
X128001854Y-57670000D03*
X128001854Y-58320000D03*
X128001854Y-58970000D03*
X128001854Y-59620000D03*
X128001854Y-60270000D03*
X128001854Y-60920000D03*
M02*
