G04 #@! TF.GenerationSoftware,KiCad,Pcbnew,no-vcs-found-7650~57~ubuntu14.04.1*
G04 #@! TF.CreationDate,2017-02-13T23:40:00+01:00*
G04 #@! TF.ProjectId,Wifi_PB_panel,576966695F50425F70616E656C2E6B69,V0.1*
G04 #@! TF.FileFunction,Soldermask,Top*
G04 #@! TF.FilePolarity,Negative*
%FSLAX46Y46*%
G04 Gerber Fmt 4.6, Leading zero omitted, Abs format (unit mm)*
G04 Created by KiCad (PCBNEW no-vcs-found-7650~57~ubuntu14.04.1) date Mon Feb 13 23:40:00 2017*
%MOMM*%
%LPD*%
G01*
G04 APERTURE LIST*
%ADD10C,0.100000*%
%ADD11R,1.554000X1.254000*%
%ADD12O,1.854000X2.254000*%
%ADD13R,2.754000X1.854000*%
%ADD14R,1.954000X1.954000*%
%ADD15O,1.954000X1.954000*%
%ADD16R,1.504000X1.254000*%
%ADD17O,1.778000X1.454000*%
%ADD18R,1.354000X2.754000*%
%ADD19O,1.354000X2.754000*%
%ADD20O,2.654000X1.354000*%
%ADD21O,1.154000X1.554000*%
%ADD22R,1.154000X1.554000*%
%ADD23R,1.454000X1.454000*%
%ADD24R,1.254000X1.554000*%
%ADD25R,1.154000X1.054000*%
%ADD26R,3.754000X1.854000*%
%ADD27R,1.104000X1.104000*%
%ADD28C,1.104000*%
%ADD29R,3.754000X3.754000*%
%ADD30C,1.454000*%
%ADD31R,0.554000X1.854000*%
%ADD32O,2.754000X3.054000*%
%ADD33O,1.654000X2.254000*%
%ADD34R,0.854000X1.754000*%
%ADD35R,1.254000X1.504000*%
%ADD36R,2.504000X0.754000*%
%ADD37C,1.254000*%
%ADD38R,3.754000X2.304000*%
%ADD39R,4.254000X2.304000*%
%ADD40R,2.754000X1.254000*%
G04 APERTURE END LIST*
D10*
D11*
X126075000Y-99300000D03*
X126075000Y-97300000D03*
D12*
X137000000Y-91300000D03*
X147000000Y-91300000D03*
D13*
X172750000Y-114300000D03*
X165250000Y-114300000D03*
X151250000Y-119300000D03*
X158750000Y-119300000D03*
D14*
X170210000Y-89300000D03*
D15*
X172750000Y-89300000D03*
X175290000Y-89300000D03*
D16*
X111000000Y-94300000D03*
X111000000Y-92300000D03*
D17*
X162620000Y-98920000D03*
X162620000Y-96380000D03*
X162620000Y-93840000D03*
X162620000Y-91300000D03*
X162620000Y-88760000D03*
X162620000Y-86220000D03*
X155000000Y-98920000D03*
X155000000Y-96380000D03*
X155000000Y-93840000D03*
X155000000Y-91300000D03*
X155000000Y-88760000D03*
X155000000Y-86220000D03*
D11*
X123750000Y-99300000D03*
X123750000Y-97300000D03*
D18*
X109000000Y-119000000D03*
D19*
X111000000Y-119000000D03*
X113000000Y-119000000D03*
X115000000Y-119000000D03*
X117000000Y-119000000D03*
X119000000Y-119000000D03*
X121000000Y-119000000D03*
X123000000Y-119000000D03*
D20*
X124750000Y-116310000D03*
X124750000Y-114310000D03*
X124750000Y-112310000D03*
X124750000Y-110310000D03*
X124750000Y-108310000D03*
X124750000Y-106310000D03*
D19*
X123000000Y-103600000D03*
X121000000Y-103700000D03*
X119000000Y-103600000D03*
X117000000Y-103600000D03*
X115000000Y-103600000D03*
X113000000Y-103600000D03*
X111000000Y-103600000D03*
X109000000Y-103600000D03*
D21*
X187540000Y-85300000D03*
X183730000Y-85300000D03*
D22*
X186270000Y-85300000D03*
D21*
X185000000Y-85300000D03*
D23*
X153900000Y-116300000D03*
X156100000Y-116300000D03*
D24*
X129200000Y-114300000D03*
X127200000Y-114300000D03*
D14*
X196000000Y-88760000D03*
D15*
X196000000Y-91300000D03*
X196000000Y-93840000D03*
X196000000Y-96380000D03*
D24*
X114250000Y-100550000D03*
X116250000Y-100550000D03*
X112250000Y-100550000D03*
X110250000Y-100550000D03*
D14*
X170210000Y-97300000D03*
D15*
X172750000Y-97300000D03*
X175290000Y-97300000D03*
D25*
X128075000Y-102450000D03*
X126075000Y-103400000D03*
X126075000Y-101500000D03*
D26*
X115000000Y-89738400D03*
X115000000Y-84861600D03*
D27*
X111000000Y-127300000D03*
D28*
X109750000Y-127300000D03*
D29*
X126000000Y-127000000D03*
X147000000Y-127000000D03*
X140000000Y-127000000D03*
X133000000Y-127000000D03*
D25*
X121500000Y-99250000D03*
X121500000Y-97350000D03*
X119500000Y-98300000D03*
D23*
X153900000Y-106300000D03*
X156100000Y-106300000D03*
D16*
X111000000Y-88300000D03*
X111000000Y-90300000D03*
D29*
X154000000Y-127000000D03*
D30*
X185280000Y-114660000D03*
X188680000Y-114660000D03*
D31*
X119250000Y-86300000D03*
X120200000Y-86300000D03*
X121150000Y-86300000D03*
D23*
X170100000Y-111300000D03*
X167900000Y-111300000D03*
D15*
X175290000Y-93300000D03*
X172750000Y-93300000D03*
D14*
X170210000Y-93300000D03*
D16*
X128450000Y-97300000D03*
X128450000Y-99300000D03*
D13*
X144750000Y-114300000D03*
X137250000Y-114300000D03*
X151250000Y-109300000D03*
X158750000Y-109300000D03*
D14*
X196000000Y-109400000D03*
D15*
X196000000Y-106860000D03*
X196000000Y-104320000D03*
X196000000Y-101780000D03*
D23*
X142100000Y-111300000D03*
X139900000Y-111300000D03*
D32*
X191600000Y-123000000D03*
X182400000Y-123000000D03*
D33*
X189500000Y-126300000D03*
X184500000Y-126300000D03*
X187000000Y-126300000D03*
D23*
X108900000Y-124300000D03*
X111100000Y-124300000D03*
D16*
X111000000Y-96300000D03*
X111000000Y-98300000D03*
D34*
X128445000Y-89600000D03*
X127175000Y-89600000D03*
X125905000Y-89600000D03*
X124635000Y-89600000D03*
X123365000Y-89600000D03*
X122095000Y-89600000D03*
X120825000Y-89600000D03*
X119555000Y-89600000D03*
X119555000Y-95000000D03*
X120825000Y-95000000D03*
X122095000Y-95000000D03*
X123365000Y-95000000D03*
X124635000Y-95000000D03*
X125905000Y-95000000D03*
X127175000Y-95000000D03*
X128445000Y-95000000D03*
D35*
X129200000Y-112300000D03*
X127200000Y-112300000D03*
X124630000Y-86290000D03*
X126630000Y-86290000D03*
D15*
X175290000Y-85300000D03*
X172750000Y-85300000D03*
D14*
X170210000Y-85300000D03*
D24*
X127200000Y-106300000D03*
X129200000Y-106300000D03*
X129200000Y-108300000D03*
X127200000Y-108300000D03*
X127200000Y-110300000D03*
X129200000Y-110300000D03*
X127200000Y-116300000D03*
X129200000Y-116300000D03*
X116000000Y-96300000D03*
X114000000Y-96300000D03*
X114000000Y-93300000D03*
X116000000Y-93300000D03*
D15*
X196000000Y-121380000D03*
X196000000Y-118840000D03*
X196000000Y-116300000D03*
D14*
X196000000Y-113760000D03*
D29*
X119000000Y-127000000D03*
D36*
X107325000Y-93500000D03*
X107325000Y-92700000D03*
X107325000Y-91900000D03*
X107325000Y-94300000D03*
X107325000Y-95100000D03*
D37*
X105000000Y-95700000D03*
X105000000Y-91300000D03*
D38*
X107325000Y-88575000D03*
X107325000Y-98425000D03*
D39*
X103075000Y-88575000D03*
X103075000Y-98425000D03*
D40*
X127500000Y-118800000D03*
X127500000Y-121800000D03*
D29*
X175000000Y-127000000D03*
X168000000Y-127000000D03*
X161000000Y-127000000D03*
D17*
X155000000Y-35920000D03*
X155000000Y-38460000D03*
X155000000Y-41000000D03*
X155000000Y-43540000D03*
X155000000Y-46080000D03*
X155000000Y-48620000D03*
X162620000Y-35920000D03*
X162620000Y-38460000D03*
X162620000Y-41000000D03*
X162620000Y-43540000D03*
X162620000Y-46080000D03*
X162620000Y-48620000D03*
D34*
X128445000Y-44700000D03*
X127175000Y-44700000D03*
X125905000Y-44700000D03*
X124635000Y-44700000D03*
X123365000Y-44700000D03*
X122095000Y-44700000D03*
X120825000Y-44700000D03*
X119555000Y-44700000D03*
X119555000Y-39300000D03*
X120825000Y-39300000D03*
X122095000Y-39300000D03*
X123365000Y-39300000D03*
X124635000Y-39300000D03*
X125905000Y-39300000D03*
X127175000Y-39300000D03*
X128445000Y-39300000D03*
D19*
X109000000Y-53300000D03*
X111000000Y-53300000D03*
X113000000Y-53300000D03*
X115000000Y-53300000D03*
X117000000Y-53300000D03*
X119000000Y-53300000D03*
X121000000Y-53400000D03*
X123000000Y-53300000D03*
D20*
X124750000Y-56010000D03*
X124750000Y-58010000D03*
X124750000Y-60010000D03*
X124750000Y-62010000D03*
X124750000Y-64010000D03*
X124750000Y-66010000D03*
D19*
X123000000Y-68700000D03*
X121000000Y-68700000D03*
X119000000Y-68700000D03*
X117000000Y-68700000D03*
X115000000Y-68700000D03*
X113000000Y-68700000D03*
X111000000Y-68700000D03*
D18*
X109000000Y-68700000D03*
D12*
X147000000Y-41000000D03*
X137000000Y-41000000D03*
D16*
X128450000Y-49000000D03*
X128450000Y-47000000D03*
D35*
X126630000Y-35990000D03*
X124630000Y-35990000D03*
X127200000Y-62000000D03*
X129200000Y-62000000D03*
D40*
X127500000Y-71500000D03*
X127500000Y-68500000D03*
D16*
X111000000Y-40000000D03*
X111000000Y-38000000D03*
X111000000Y-42000000D03*
X111000000Y-44000000D03*
X111000000Y-48000000D03*
X111000000Y-46000000D03*
D23*
X111100000Y-74000000D03*
X108900000Y-74000000D03*
X139900000Y-61000000D03*
X142100000Y-61000000D03*
X156100000Y-56000000D03*
X153900000Y-56000000D03*
X167900000Y-61000000D03*
X170100000Y-61000000D03*
X156100000Y-66000000D03*
X153900000Y-66000000D03*
D21*
X185000000Y-35000000D03*
D22*
X186270000Y-35000000D03*
D21*
X183730000Y-35000000D03*
X187540000Y-35000000D03*
D14*
X170210000Y-35000000D03*
D15*
X172750000Y-35000000D03*
X175290000Y-35000000D03*
X175290000Y-39000000D03*
X172750000Y-39000000D03*
D14*
X170210000Y-39000000D03*
X170210000Y-43000000D03*
D15*
X172750000Y-43000000D03*
X175290000Y-43000000D03*
X175290000Y-47000000D03*
X172750000Y-47000000D03*
D14*
X170210000Y-47000000D03*
D29*
X126000000Y-76700000D03*
X133000000Y-76700000D03*
X140000000Y-76700000D03*
X147000000Y-76700000D03*
X119000000Y-76700000D03*
D14*
X196000000Y-63460000D03*
D15*
X196000000Y-66000000D03*
X196000000Y-68540000D03*
X196000000Y-71080000D03*
X196000000Y-46080000D03*
X196000000Y-43540000D03*
X196000000Y-41000000D03*
D14*
X196000000Y-38460000D03*
D29*
X154000000Y-76700000D03*
X161000000Y-76700000D03*
X168000000Y-76700000D03*
X175000000Y-76700000D03*
D25*
X126075000Y-51200000D03*
X126075000Y-53100000D03*
X128075000Y-52150000D03*
X119500000Y-48000000D03*
X121500000Y-47050000D03*
X121500000Y-48950000D03*
D24*
X129200000Y-60000000D03*
X127200000Y-60000000D03*
X127200000Y-58000000D03*
X129200000Y-58000000D03*
X129200000Y-66000000D03*
X127200000Y-66000000D03*
X127200000Y-64000000D03*
X129200000Y-64000000D03*
X129200000Y-56000000D03*
X127200000Y-56000000D03*
X110250000Y-50250000D03*
X112250000Y-50250000D03*
X116250000Y-50250000D03*
X114250000Y-50250000D03*
D11*
X123750000Y-47000000D03*
X123750000Y-49000000D03*
X126075000Y-47000000D03*
X126075000Y-49000000D03*
D24*
X116000000Y-43000000D03*
X114000000Y-43000000D03*
X114000000Y-46000000D03*
X116000000Y-46000000D03*
D33*
X187000000Y-76000000D03*
X184500000Y-76000000D03*
X189500000Y-76000000D03*
D32*
X182400000Y-72700000D03*
X191600000Y-72700000D03*
D13*
X158750000Y-69000000D03*
X151250000Y-69000000D03*
X165250000Y-64000000D03*
X172750000Y-64000000D03*
X158750000Y-59000000D03*
X151250000Y-59000000D03*
X137250000Y-64000000D03*
X144750000Y-64000000D03*
D26*
X115000000Y-34561600D03*
X115000000Y-39438400D03*
D39*
X103075000Y-48125000D03*
X103075000Y-38275000D03*
D38*
X107325000Y-48125000D03*
X107325000Y-38275000D03*
D37*
X105000000Y-41000000D03*
X105000000Y-45400000D03*
D36*
X107325000Y-44800000D03*
X107325000Y-44000000D03*
X107325000Y-41600000D03*
X107325000Y-42400000D03*
X107325000Y-43200000D03*
D28*
X109750000Y-77000000D03*
D27*
X111000000Y-77000000D03*
D15*
X196000000Y-51480000D03*
X196000000Y-54020000D03*
X196000000Y-56560000D03*
D14*
X196000000Y-59100000D03*
D31*
X121150000Y-36000000D03*
X120200000Y-36000000D03*
X119250000Y-36000000D03*
D30*
X188680000Y-64360000D03*
X185280000Y-64360000D03*
M02*
