G04 #@! TF.GenerationSoftware,KiCad,Pcbnew,no-vcs-found-7650~57~ubuntu14.04.1*
G04 #@! TF.CreationDate,2017-02-13T23:40:00+01:00*
G04 #@! TF.ProjectId,Wifi_PB_panel,576966695F50425F70616E656C2E6B69,V0.1*
G04 #@! TF.FileFunction,Paste,Bot*
G04 #@! TF.FilePolarity,Positive*
%FSLAX46Y46*%
G04 Gerber Fmt 4.6, Leading zero omitted, Abs format (unit mm)*
G04 Created by KiCad (PCBNEW no-vcs-found-7650~57~ubuntu14.04.1) date Mon Feb 13 23:40:00 2017*
%MOMM*%
%LPD*%
G01*
G04 APERTURE LIST*
%ADD10C,0.100000*%
%ADD11R,1.000000X1.300000*%
%ADD12R,1.300000X1.000000*%
%ADD13R,0.800000X0.900000*%
%ADD14R,1.600000X1.000000*%
%ADD15R,1.000000X1.250000*%
%ADD16R,1.250000X1.000000*%
%ADD17R,3.800000X2.000000*%
%ADD18R,1.500000X2.000000*%
%ADD19R,1.500000X0.600000*%
%ADD20R,0.650000X1.060000*%
%ADD21R,0.910000X1.220000*%
%ADD22C,1.200000*%
%ADD23R,1.500000X0.450000*%
%ADD24R,1.750000X0.450000*%
%ADD25R,0.900000X0.800000*%
%ADD26R,1.000000X1.600000*%
%ADD27R,0.650000X0.300000*%
%ADD28R,1.060000X0.650000*%
G04 APERTURE END LIST*
D10*
D11*
X114000000Y-86800000D03*
X116000000Y-86800000D03*
X114000000Y-90300000D03*
X116000000Y-90300000D03*
X112500000Y-97000000D03*
X110500000Y-97000000D03*
X191500000Y-93300000D03*
X193500000Y-93300000D03*
X191500000Y-119300000D03*
X193500000Y-119300000D03*
X163000000Y-121300000D03*
X165000000Y-121300000D03*
X193500000Y-97300000D03*
X191500000Y-97300000D03*
D12*
X107500000Y-92300000D03*
X107500000Y-90300000D03*
D11*
X146300000Y-94300000D03*
X144300000Y-94300000D03*
X155000000Y-115300000D03*
X153000000Y-115300000D03*
D13*
X169550000Y-106750000D03*
X167650000Y-106750000D03*
X168600000Y-104750000D03*
D14*
X121190000Y-95790000D03*
X121190000Y-92790000D03*
D15*
X191500000Y-95300000D03*
X193500000Y-95300000D03*
X134800000Y-109300000D03*
X132800000Y-109300000D03*
D16*
X110000000Y-110450000D03*
X110000000Y-108450000D03*
D11*
X155000000Y-121300000D03*
X153000000Y-121300000D03*
X165000000Y-115300000D03*
X163000000Y-115300000D03*
X144300000Y-100300000D03*
X146300000Y-100300000D03*
D17*
X115000000Y-104150000D03*
D18*
X115000000Y-110450000D03*
X112700000Y-110450000D03*
X117300000Y-110450000D03*
D11*
X146300000Y-104300000D03*
X144300000Y-104300000D03*
D14*
X110000000Y-117800000D03*
X110000000Y-120800000D03*
D12*
X158000000Y-128000000D03*
X158000000Y-126000000D03*
X151000000Y-126000000D03*
X151000000Y-128000000D03*
D19*
X185300000Y-109745000D03*
X185300000Y-108475000D03*
X185300000Y-107205000D03*
X185300000Y-105935000D03*
X185300000Y-104665000D03*
X185300000Y-103395000D03*
X185300000Y-102125000D03*
X185300000Y-100855000D03*
X190700000Y-100855000D03*
X190700000Y-102125000D03*
X190700000Y-103395000D03*
X190700000Y-104665000D03*
X190700000Y-105935000D03*
X190700000Y-107205000D03*
X190700000Y-108475000D03*
X190700000Y-109745000D03*
D20*
X114950000Y-121400000D03*
X114000000Y-121400000D03*
X113050000Y-121400000D03*
X113050000Y-119200000D03*
X114950000Y-119200000D03*
D11*
X170000000Y-121300000D03*
X172000000Y-121300000D03*
X167750000Y-85300000D03*
X165750000Y-85300000D03*
D12*
X107500000Y-95300000D03*
X107500000Y-97300000D03*
D13*
X161550000Y-106750000D03*
X159650000Y-106750000D03*
X160600000Y-104750000D03*
D15*
X134800000Y-95300000D03*
X132800000Y-95300000D03*
D21*
X121135000Y-84800000D03*
X117865000Y-84800000D03*
D11*
X175951854Y-108049480D03*
X173951854Y-108049480D03*
X146300000Y-118300000D03*
X144300000Y-118300000D03*
X144300000Y-114300000D03*
X146300000Y-114300000D03*
D12*
X172000000Y-128000000D03*
X172000000Y-126000000D03*
X165000000Y-126000000D03*
X165000000Y-128000000D03*
D11*
X128800000Y-104300000D03*
X126800000Y-104300000D03*
X126800000Y-102300000D03*
X128800000Y-102300000D03*
D10*
G36*
X116045881Y-97200289D02*
X116051705Y-97201153D01*
X116057417Y-97202584D01*
X116062961Y-97204567D01*
X116068284Y-97207085D01*
X116073334Y-97210112D01*
X116078064Y-97213619D01*
X116082426Y-97217574D01*
X116086381Y-97221936D01*
X116089888Y-97226666D01*
X116092915Y-97231716D01*
X116095433Y-97237039D01*
X116097416Y-97242583D01*
X116098847Y-97248295D01*
X116099711Y-97254119D01*
X116100000Y-97260000D01*
X116100000Y-101340000D01*
X116099711Y-101345881D01*
X116098847Y-101351705D01*
X116097416Y-101357417D01*
X116095433Y-101362961D01*
X116092915Y-101368284D01*
X116089888Y-101373334D01*
X116086381Y-101378064D01*
X116082426Y-101382426D01*
X116078064Y-101386381D01*
X116073334Y-101389888D01*
X116068284Y-101392915D01*
X116062961Y-101395433D01*
X116057417Y-101397416D01*
X116051705Y-101398847D01*
X116045881Y-101399711D01*
X116040000Y-101400000D01*
X114960000Y-101400000D01*
X114954119Y-101399711D01*
X114948295Y-101398847D01*
X114942583Y-101397416D01*
X114937039Y-101395433D01*
X114931716Y-101392915D01*
X114926666Y-101389888D01*
X114921936Y-101386381D01*
X114917574Y-101382426D01*
X114913619Y-101378064D01*
X114910112Y-101373334D01*
X114907085Y-101368284D01*
X114904567Y-101362961D01*
X114902584Y-101357417D01*
X114901153Y-101351705D01*
X114900289Y-101345881D01*
X114900000Y-101340000D01*
X114900000Y-97260000D01*
X114900289Y-97254119D01*
X114901153Y-97248295D01*
X114902584Y-97242583D01*
X114904567Y-97237039D01*
X114907085Y-97231716D01*
X114910112Y-97226666D01*
X114913619Y-97221936D01*
X114917574Y-97217574D01*
X114921936Y-97213619D01*
X114926666Y-97210112D01*
X114931716Y-97207085D01*
X114937039Y-97204567D01*
X114942583Y-97202584D01*
X114948295Y-97201153D01*
X114954119Y-97200289D01*
X114960000Y-97200000D01*
X116040000Y-97200000D01*
X116045881Y-97200289D01*
X116045881Y-97200289D01*
G37*
D22*
X115500000Y-99300000D03*
D10*
G36*
X119045881Y-97200289D02*
X119051705Y-97201153D01*
X119057417Y-97202584D01*
X119062961Y-97204567D01*
X119068284Y-97207085D01*
X119073334Y-97210112D01*
X119078064Y-97213619D01*
X119082426Y-97217574D01*
X119086381Y-97221936D01*
X119089888Y-97226666D01*
X119092915Y-97231716D01*
X119095433Y-97237039D01*
X119097416Y-97242583D01*
X119098847Y-97248295D01*
X119099711Y-97254119D01*
X119100000Y-97260000D01*
X119100000Y-101340000D01*
X119099711Y-101345881D01*
X119098847Y-101351705D01*
X119097416Y-101357417D01*
X119095433Y-101362961D01*
X119092915Y-101368284D01*
X119089888Y-101373334D01*
X119086381Y-101378064D01*
X119082426Y-101382426D01*
X119078064Y-101386381D01*
X119073334Y-101389888D01*
X119068284Y-101392915D01*
X119062961Y-101395433D01*
X119057417Y-101397416D01*
X119051705Y-101398847D01*
X119045881Y-101399711D01*
X119040000Y-101400000D01*
X117960000Y-101400000D01*
X117954119Y-101399711D01*
X117948295Y-101398847D01*
X117942583Y-101397416D01*
X117937039Y-101395433D01*
X117931716Y-101392915D01*
X117926666Y-101389888D01*
X117921936Y-101386381D01*
X117917574Y-101382426D01*
X117913619Y-101378064D01*
X117910112Y-101373334D01*
X117907085Y-101368284D01*
X117904567Y-101362961D01*
X117902584Y-101357417D01*
X117901153Y-101351705D01*
X117900289Y-101345881D01*
X117900000Y-101340000D01*
X117900000Y-97260000D01*
X117900289Y-97254119D01*
X117901153Y-97248295D01*
X117902584Y-97242583D01*
X117904567Y-97237039D01*
X117907085Y-97231716D01*
X117910112Y-97226666D01*
X117913619Y-97221936D01*
X117917574Y-97217574D01*
X117921936Y-97213619D01*
X117926666Y-97210112D01*
X117931716Y-97207085D01*
X117937039Y-97204567D01*
X117942583Y-97202584D01*
X117948295Y-97201153D01*
X117954119Y-97200289D01*
X117960000Y-97200000D01*
X119040000Y-97200000D01*
X119045881Y-97200289D01*
X119045881Y-97200289D01*
G37*
D22*
X118500000Y-99300000D03*
D23*
X174001854Y-106324480D03*
X174001854Y-105674480D03*
X174001854Y-105024480D03*
X174001854Y-104374480D03*
X174001854Y-103724480D03*
X174001854Y-103074480D03*
X174001854Y-102424480D03*
X174001854Y-101774480D03*
X179901854Y-101774480D03*
X179901854Y-102424480D03*
X179901854Y-103074480D03*
X179901854Y-103724480D03*
X179901854Y-104374480D03*
X179901854Y-105024480D03*
X179901854Y-105674480D03*
X179901854Y-106324480D03*
D24*
X133200000Y-106525000D03*
X133200000Y-105875000D03*
X133200000Y-105225000D03*
X133200000Y-104575000D03*
X133200000Y-103925000D03*
X133200000Y-103275000D03*
X133200000Y-102625000D03*
X133200000Y-101975000D03*
X133200000Y-101325000D03*
X133200000Y-100675000D03*
X133200000Y-100025000D03*
X133200000Y-99375000D03*
X133200000Y-98725000D03*
X133200000Y-98075000D03*
X140400000Y-98075000D03*
X140400000Y-98725000D03*
X140400000Y-99375000D03*
X140400000Y-100025000D03*
X140400000Y-100675000D03*
X140400000Y-101325000D03*
X140400000Y-101975000D03*
X140400000Y-102625000D03*
X140400000Y-103275000D03*
X140400000Y-103925000D03*
X140400000Y-104575000D03*
X140400000Y-105225000D03*
X140400000Y-105875000D03*
X140400000Y-106525000D03*
D13*
X164000000Y-119300000D03*
X164950000Y-117300000D03*
X163050000Y-117300000D03*
D25*
X110500000Y-93350000D03*
X110500000Y-91450000D03*
X112500000Y-92400000D03*
D11*
X159600000Y-108750000D03*
X161600000Y-108750000D03*
X144300000Y-108300000D03*
X146300000Y-108300000D03*
D12*
X184650000Y-91050000D03*
X184650000Y-89050000D03*
X182650000Y-91050000D03*
X182650000Y-89050000D03*
X124990000Y-94690000D03*
X124990000Y-92690000D03*
D14*
X119000000Y-87300000D03*
X119000000Y-90300000D03*
D13*
X164600000Y-104750000D03*
X163650000Y-106750000D03*
X165550000Y-106750000D03*
D11*
X165600000Y-108750000D03*
X163600000Y-108750000D03*
X128800000Y-100300000D03*
X126800000Y-100300000D03*
D15*
X187000000Y-98300000D03*
X185000000Y-98300000D03*
X193500000Y-113300000D03*
X191500000Y-113300000D03*
X170600000Y-115300000D03*
X168600000Y-115300000D03*
D12*
X144000000Y-128000000D03*
X144000000Y-126000000D03*
D15*
X168600000Y-113300000D03*
X170600000Y-113300000D03*
D11*
X153600000Y-108750000D03*
X151600000Y-108750000D03*
X144300000Y-106300000D03*
X146300000Y-106300000D03*
D15*
X191500000Y-117300000D03*
X193500000Y-117300000D03*
D11*
X193500000Y-115300000D03*
X191500000Y-115300000D03*
D24*
X140400000Y-120525000D03*
X140400000Y-119875000D03*
X140400000Y-119225000D03*
X140400000Y-118575000D03*
X140400000Y-117925000D03*
X140400000Y-117275000D03*
X140400000Y-116625000D03*
X140400000Y-115975000D03*
X140400000Y-115325000D03*
X140400000Y-114675000D03*
X140400000Y-114025000D03*
X140400000Y-113375000D03*
X140400000Y-112725000D03*
X140400000Y-112075000D03*
X133200000Y-112075000D03*
X133200000Y-112725000D03*
X133200000Y-113375000D03*
X133200000Y-114025000D03*
X133200000Y-114675000D03*
X133200000Y-115325000D03*
X133200000Y-115975000D03*
X133200000Y-116625000D03*
X133200000Y-117275000D03*
X133200000Y-117925000D03*
X133200000Y-118575000D03*
X133200000Y-119225000D03*
X133200000Y-119875000D03*
X133200000Y-120525000D03*
D11*
X126800000Y-110300000D03*
X128800000Y-110300000D03*
X128800000Y-112300000D03*
X126800000Y-112300000D03*
X128800000Y-98300000D03*
X126800000Y-98300000D03*
X144300000Y-116300000D03*
X146300000Y-116300000D03*
D13*
X153050000Y-117300000D03*
X154950000Y-117300000D03*
X154000000Y-119300000D03*
X152600000Y-104750000D03*
X151650000Y-106750000D03*
X153550000Y-106750000D03*
D15*
X153000000Y-113300000D03*
X155000000Y-113300000D03*
D13*
X124950000Y-88900000D03*
X123050000Y-88900000D03*
X124000000Y-86900000D03*
D15*
X191500000Y-91300000D03*
X193500000Y-91300000D03*
D26*
X177300000Y-111280000D03*
X174300000Y-111280000D03*
D11*
X128800000Y-108300000D03*
X126800000Y-108300000D03*
D19*
X179700000Y-113490000D03*
X179700000Y-114760000D03*
X179700000Y-116030000D03*
X179700000Y-117300000D03*
X179700000Y-118570000D03*
X179700000Y-119840000D03*
X179700000Y-121110000D03*
X174300000Y-121110000D03*
X174300000Y-119840000D03*
X174300000Y-118570000D03*
X174300000Y-117300000D03*
X174300000Y-116030000D03*
X174300000Y-114760000D03*
X174300000Y-113490000D03*
D26*
X108500000Y-86800000D03*
X111500000Y-86800000D03*
D11*
X146300000Y-110300000D03*
X144300000Y-110300000D03*
D15*
X179951854Y-108049480D03*
X177951854Y-108049480D03*
D14*
X120500000Y-107800000D03*
X120500000Y-110800000D03*
D15*
X165000000Y-113300000D03*
X163000000Y-113300000D03*
X179750000Y-85300000D03*
X177750000Y-85300000D03*
X177750000Y-89300000D03*
X179750000Y-89300000D03*
D14*
X118000000Y-117800000D03*
X118000000Y-120800000D03*
D15*
X179750000Y-93300000D03*
X177750000Y-93300000D03*
D12*
X123000000Y-126000000D03*
X123000000Y-128000000D03*
D11*
X165750000Y-97300000D03*
X167750000Y-97300000D03*
X126800000Y-106300000D03*
X128800000Y-106300000D03*
X109340000Y-124300000D03*
X111340000Y-124300000D03*
X112900000Y-116300000D03*
X114900000Y-116300000D03*
X144300000Y-96300000D03*
X146300000Y-96300000D03*
X155600000Y-108750000D03*
X157600000Y-108750000D03*
D13*
X156600000Y-104750000D03*
X155650000Y-106750000D03*
X157550000Y-106750000D03*
D27*
X160550000Y-114800000D03*
X160550000Y-115300000D03*
X160550000Y-115800000D03*
X160550000Y-116300000D03*
X160550000Y-116800000D03*
X157450000Y-116800000D03*
X157450000Y-116300000D03*
X157450000Y-115800000D03*
X157450000Y-115300000D03*
X157450000Y-114800000D03*
D15*
X177750000Y-97300000D03*
X179750000Y-97300000D03*
D26*
X136800000Y-95300000D03*
X139800000Y-95300000D03*
D11*
X146300000Y-112300000D03*
X144300000Y-112300000D03*
X146300000Y-102300000D03*
X144300000Y-102300000D03*
X146300000Y-98300000D03*
X144300000Y-98300000D03*
D12*
X137000000Y-126000000D03*
X137000000Y-128000000D03*
X130000000Y-128000000D03*
X130000000Y-126000000D03*
D26*
X139800000Y-109300000D03*
X136800000Y-109300000D03*
D12*
X186650000Y-89050000D03*
X186650000Y-91050000D03*
X182670000Y-116340000D03*
X182670000Y-118340000D03*
D28*
X115900000Y-95250000D03*
X115900000Y-94300000D03*
X115900000Y-93350000D03*
X118100000Y-93350000D03*
X118100000Y-95250000D03*
X118100000Y-94300000D03*
D11*
X167750000Y-93300000D03*
X165750000Y-93300000D03*
X165750000Y-89300000D03*
X167750000Y-89300000D03*
X169600000Y-108750000D03*
X167600000Y-108750000D03*
D28*
X118100000Y-44000000D03*
X118100000Y-44950000D03*
X118100000Y-43050000D03*
X115900000Y-43050000D03*
X115900000Y-44000000D03*
X115900000Y-44950000D03*
D24*
X140400000Y-56225000D03*
X140400000Y-55575000D03*
X140400000Y-54925000D03*
X140400000Y-54275000D03*
X140400000Y-53625000D03*
X140400000Y-52975000D03*
X140400000Y-52325000D03*
X140400000Y-51675000D03*
X140400000Y-51025000D03*
X140400000Y-50375000D03*
X140400000Y-49725000D03*
X140400000Y-49075000D03*
X140400000Y-48425000D03*
X140400000Y-47775000D03*
X133200000Y-47775000D03*
X133200000Y-48425000D03*
X133200000Y-49075000D03*
X133200000Y-49725000D03*
X133200000Y-50375000D03*
X133200000Y-51025000D03*
X133200000Y-51675000D03*
X133200000Y-52325000D03*
X133200000Y-52975000D03*
X133200000Y-53625000D03*
X133200000Y-54275000D03*
X133200000Y-54925000D03*
X133200000Y-55575000D03*
X133200000Y-56225000D03*
X133200000Y-70225000D03*
X133200000Y-69575000D03*
X133200000Y-68925000D03*
X133200000Y-68275000D03*
X133200000Y-67625000D03*
X133200000Y-66975000D03*
X133200000Y-66325000D03*
X133200000Y-65675000D03*
X133200000Y-65025000D03*
X133200000Y-64375000D03*
X133200000Y-63725000D03*
X133200000Y-63075000D03*
X133200000Y-62425000D03*
X133200000Y-61775000D03*
X140400000Y-61775000D03*
X140400000Y-62425000D03*
X140400000Y-63075000D03*
X140400000Y-63725000D03*
X140400000Y-64375000D03*
X140400000Y-65025000D03*
X140400000Y-65675000D03*
X140400000Y-66325000D03*
X140400000Y-66975000D03*
X140400000Y-67625000D03*
X140400000Y-68275000D03*
X140400000Y-68925000D03*
X140400000Y-69575000D03*
X140400000Y-70225000D03*
D27*
X157450000Y-64500000D03*
X157450000Y-65000000D03*
X157450000Y-65500000D03*
X157450000Y-66000000D03*
X157450000Y-66500000D03*
X160550000Y-66500000D03*
X160550000Y-66000000D03*
X160550000Y-65500000D03*
X160550000Y-65000000D03*
X160550000Y-64500000D03*
D23*
X179901854Y-56024480D03*
X179901854Y-55374480D03*
X179901854Y-54724480D03*
X179901854Y-54074480D03*
X179901854Y-53424480D03*
X179901854Y-52774480D03*
X179901854Y-52124480D03*
X179901854Y-51474480D03*
X174001854Y-51474480D03*
X174001854Y-52124480D03*
X174001854Y-52774480D03*
X174001854Y-53424480D03*
X174001854Y-54074480D03*
X174001854Y-54724480D03*
X174001854Y-55374480D03*
X174001854Y-56024480D03*
D19*
X174300000Y-63190000D03*
X174300000Y-64460000D03*
X174300000Y-65730000D03*
X174300000Y-67000000D03*
X174300000Y-68270000D03*
X174300000Y-69540000D03*
X174300000Y-70810000D03*
X179700000Y-70810000D03*
X179700000Y-69540000D03*
X179700000Y-68270000D03*
X179700000Y-67000000D03*
X179700000Y-65730000D03*
X179700000Y-64460000D03*
X179700000Y-63190000D03*
X190700000Y-59445000D03*
X190700000Y-58175000D03*
X190700000Y-56905000D03*
X190700000Y-55635000D03*
X190700000Y-54365000D03*
X190700000Y-53095000D03*
X190700000Y-51825000D03*
X190700000Y-50555000D03*
X185300000Y-50555000D03*
X185300000Y-51825000D03*
X185300000Y-53095000D03*
X185300000Y-54365000D03*
X185300000Y-55635000D03*
X185300000Y-56905000D03*
X185300000Y-58175000D03*
X185300000Y-59445000D03*
D14*
X110000000Y-70500000D03*
X110000000Y-67500000D03*
D16*
X110000000Y-58150000D03*
X110000000Y-60150000D03*
D14*
X120500000Y-60500000D03*
X120500000Y-57500000D03*
X118000000Y-70500000D03*
X118000000Y-67500000D03*
D26*
X111500000Y-36500000D03*
X108500000Y-36500000D03*
D15*
X155000000Y-63000000D03*
X153000000Y-63000000D03*
X163000000Y-63000000D03*
X165000000Y-63000000D03*
D26*
X139800000Y-45000000D03*
X136800000Y-45000000D03*
X136800000Y-59000000D03*
X139800000Y-59000000D03*
D15*
X132800000Y-45000000D03*
X134800000Y-45000000D03*
X132800000Y-59000000D03*
X134800000Y-59000000D03*
X168600000Y-65000000D03*
X170600000Y-65000000D03*
X170600000Y-63000000D03*
X168600000Y-63000000D03*
D26*
X174300000Y-60980000D03*
X177300000Y-60980000D03*
D15*
X177951854Y-57749480D03*
X179951854Y-57749480D03*
X177750000Y-35000000D03*
X179750000Y-35000000D03*
X179750000Y-39000000D03*
X177750000Y-39000000D03*
X177750000Y-43000000D03*
X179750000Y-43000000D03*
X179750000Y-47000000D03*
X177750000Y-47000000D03*
X191500000Y-63000000D03*
X193500000Y-63000000D03*
X185000000Y-48000000D03*
X187000000Y-48000000D03*
X193500000Y-67000000D03*
X191500000Y-67000000D03*
X193500000Y-41000000D03*
X191500000Y-41000000D03*
X193500000Y-45000000D03*
X191500000Y-45000000D03*
D14*
X121190000Y-42490000D03*
X121190000Y-45490000D03*
X119000000Y-40000000D03*
X119000000Y-37000000D03*
D10*
G36*
X119045881Y-46900289D02*
X119051705Y-46901153D01*
X119057417Y-46902584D01*
X119062961Y-46904567D01*
X119068284Y-46907085D01*
X119073334Y-46910112D01*
X119078064Y-46913619D01*
X119082426Y-46917574D01*
X119086381Y-46921936D01*
X119089888Y-46926666D01*
X119092915Y-46931716D01*
X119095433Y-46937039D01*
X119097416Y-46942583D01*
X119098847Y-46948295D01*
X119099711Y-46954119D01*
X119100000Y-46960000D01*
X119100000Y-51040000D01*
X119099711Y-51045881D01*
X119098847Y-51051705D01*
X119097416Y-51057417D01*
X119095433Y-51062961D01*
X119092915Y-51068284D01*
X119089888Y-51073334D01*
X119086381Y-51078064D01*
X119082426Y-51082426D01*
X119078064Y-51086381D01*
X119073334Y-51089888D01*
X119068284Y-51092915D01*
X119062961Y-51095433D01*
X119057417Y-51097416D01*
X119051705Y-51098847D01*
X119045881Y-51099711D01*
X119040000Y-51100000D01*
X117960000Y-51100000D01*
X117954119Y-51099711D01*
X117948295Y-51098847D01*
X117942583Y-51097416D01*
X117937039Y-51095433D01*
X117931716Y-51092915D01*
X117926666Y-51089888D01*
X117921936Y-51086381D01*
X117917574Y-51082426D01*
X117913619Y-51078064D01*
X117910112Y-51073334D01*
X117907085Y-51068284D01*
X117904567Y-51062961D01*
X117902584Y-51057417D01*
X117901153Y-51051705D01*
X117900289Y-51045881D01*
X117900000Y-51040000D01*
X117900000Y-46960000D01*
X117900289Y-46954119D01*
X117901153Y-46948295D01*
X117902584Y-46942583D01*
X117904567Y-46937039D01*
X117907085Y-46931716D01*
X117910112Y-46926666D01*
X117913619Y-46921936D01*
X117917574Y-46917574D01*
X117921936Y-46913619D01*
X117926666Y-46910112D01*
X117931716Y-46907085D01*
X117937039Y-46904567D01*
X117942583Y-46902584D01*
X117948295Y-46901153D01*
X117954119Y-46900289D01*
X117960000Y-46900000D01*
X119040000Y-46900000D01*
X119045881Y-46900289D01*
X119045881Y-46900289D01*
G37*
D22*
X118500000Y-49000000D03*
D10*
G36*
X116045881Y-46900289D02*
X116051705Y-46901153D01*
X116057417Y-46902584D01*
X116062961Y-46904567D01*
X116068284Y-46907085D01*
X116073334Y-46910112D01*
X116078064Y-46913619D01*
X116082426Y-46917574D01*
X116086381Y-46921936D01*
X116089888Y-46926666D01*
X116092915Y-46931716D01*
X116095433Y-46937039D01*
X116097416Y-46942583D01*
X116098847Y-46948295D01*
X116099711Y-46954119D01*
X116100000Y-46960000D01*
X116100000Y-51040000D01*
X116099711Y-51045881D01*
X116098847Y-51051705D01*
X116097416Y-51057417D01*
X116095433Y-51062961D01*
X116092915Y-51068284D01*
X116089888Y-51073334D01*
X116086381Y-51078064D01*
X116082426Y-51082426D01*
X116078064Y-51086381D01*
X116073334Y-51089888D01*
X116068284Y-51092915D01*
X116062961Y-51095433D01*
X116057417Y-51097416D01*
X116051705Y-51098847D01*
X116045881Y-51099711D01*
X116040000Y-51100000D01*
X114960000Y-51100000D01*
X114954119Y-51099711D01*
X114948295Y-51098847D01*
X114942583Y-51097416D01*
X114937039Y-51095433D01*
X114931716Y-51092915D01*
X114926666Y-51089888D01*
X114921936Y-51086381D01*
X114917574Y-51082426D01*
X114913619Y-51078064D01*
X114910112Y-51073334D01*
X114907085Y-51068284D01*
X114904567Y-51062961D01*
X114902584Y-51057417D01*
X114901153Y-51051705D01*
X114900289Y-51045881D01*
X114900000Y-51040000D01*
X114900000Y-46960000D01*
X114900289Y-46954119D01*
X114901153Y-46948295D01*
X114902584Y-46942583D01*
X114904567Y-46937039D01*
X114907085Y-46931716D01*
X114910112Y-46926666D01*
X114913619Y-46921936D01*
X114917574Y-46917574D01*
X114921936Y-46913619D01*
X114926666Y-46910112D01*
X114931716Y-46907085D01*
X114937039Y-46904567D01*
X114942583Y-46902584D01*
X114948295Y-46901153D01*
X114954119Y-46900289D01*
X114960000Y-46900000D01*
X116040000Y-46900000D01*
X116045881Y-46900289D01*
X116045881Y-46900289D01*
G37*
D22*
X115500000Y-49000000D03*
D13*
X154000000Y-69000000D03*
X154950000Y-67000000D03*
X153050000Y-67000000D03*
X163050000Y-67000000D03*
X164950000Y-67000000D03*
X164000000Y-69000000D03*
X153550000Y-56450000D03*
X151650000Y-56450000D03*
X152600000Y-54450000D03*
X157550000Y-56450000D03*
X155650000Y-56450000D03*
X156600000Y-54450000D03*
X160600000Y-54450000D03*
X159650000Y-56450000D03*
X161550000Y-56450000D03*
X165550000Y-56450000D03*
X163650000Y-56450000D03*
X164600000Y-54450000D03*
X168600000Y-54450000D03*
X167650000Y-56450000D03*
X169550000Y-56450000D03*
D25*
X112500000Y-42100000D03*
X110500000Y-41150000D03*
X110500000Y-43050000D03*
D13*
X124000000Y-36600000D03*
X123050000Y-38600000D03*
X124950000Y-38600000D03*
D11*
X111340000Y-74000000D03*
X109340000Y-74000000D03*
X114900000Y-66000000D03*
X112900000Y-66000000D03*
X153000000Y-65000000D03*
X155000000Y-65000000D03*
X163000000Y-65000000D03*
X165000000Y-65000000D03*
X153000000Y-71000000D03*
X155000000Y-71000000D03*
X165000000Y-71000000D03*
X163000000Y-71000000D03*
X173951854Y-57749480D03*
X175951854Y-57749480D03*
X165750000Y-35000000D03*
X167750000Y-35000000D03*
X167750000Y-39000000D03*
X165750000Y-39000000D03*
X165750000Y-43000000D03*
X167750000Y-43000000D03*
X167750000Y-47000000D03*
X165750000Y-47000000D03*
X144300000Y-60000000D03*
X146300000Y-60000000D03*
X126800000Y-62000000D03*
X128800000Y-62000000D03*
X128800000Y-60000000D03*
X126800000Y-60000000D03*
X126800000Y-58000000D03*
X128800000Y-58000000D03*
X128800000Y-56000000D03*
X126800000Y-56000000D03*
X144300000Y-48000000D03*
X146300000Y-48000000D03*
X144300000Y-52000000D03*
X146300000Y-52000000D03*
X146300000Y-56000000D03*
X144300000Y-56000000D03*
X151600000Y-58450000D03*
X153600000Y-58450000D03*
X157600000Y-58450000D03*
X155600000Y-58450000D03*
X146300000Y-46000000D03*
X144300000Y-46000000D03*
X146300000Y-50000000D03*
X144300000Y-50000000D03*
X144300000Y-54000000D03*
X146300000Y-54000000D03*
X146300000Y-58000000D03*
X144300000Y-58000000D03*
X161600000Y-58450000D03*
X159600000Y-58450000D03*
X163600000Y-58450000D03*
X165600000Y-58450000D03*
X167600000Y-58450000D03*
X169600000Y-58450000D03*
X146300000Y-66000000D03*
X144300000Y-66000000D03*
X126800000Y-48000000D03*
X128800000Y-48000000D03*
X126800000Y-50000000D03*
X128800000Y-50000000D03*
X128800000Y-52000000D03*
X126800000Y-52000000D03*
X126800000Y-54000000D03*
X128800000Y-54000000D03*
D12*
X123000000Y-77700000D03*
X123000000Y-75700000D03*
X130000000Y-75700000D03*
X130000000Y-77700000D03*
X137000000Y-77700000D03*
X137000000Y-75700000D03*
X144000000Y-75700000D03*
X144000000Y-77700000D03*
D11*
X191500000Y-65000000D03*
X193500000Y-65000000D03*
X193500000Y-69000000D03*
X191500000Y-69000000D03*
X193500000Y-43000000D03*
X191500000Y-43000000D03*
X191500000Y-47000000D03*
X193500000Y-47000000D03*
X144300000Y-44000000D03*
X146300000Y-44000000D03*
D12*
X107500000Y-40000000D03*
X107500000Y-42000000D03*
X107500000Y-47000000D03*
X107500000Y-45000000D03*
D11*
X110500000Y-46700000D03*
X112500000Y-46700000D03*
X116000000Y-40000000D03*
X114000000Y-40000000D03*
X116000000Y-36500000D03*
X114000000Y-36500000D03*
D12*
X124990000Y-42390000D03*
X124990000Y-44390000D03*
D11*
X144300000Y-62000000D03*
X146300000Y-62000000D03*
X146300000Y-64000000D03*
X144300000Y-64000000D03*
X144300000Y-68000000D03*
X146300000Y-68000000D03*
D12*
X186650000Y-40750000D03*
X186650000Y-38750000D03*
X182650000Y-38750000D03*
X182650000Y-40750000D03*
X184650000Y-38750000D03*
X184650000Y-40750000D03*
X151000000Y-77700000D03*
X151000000Y-75700000D03*
X158000000Y-75700000D03*
X158000000Y-77700000D03*
X165000000Y-77700000D03*
X165000000Y-75700000D03*
X172000000Y-75700000D03*
X172000000Y-77700000D03*
D20*
X114950000Y-68900000D03*
X113050000Y-68900000D03*
X113050000Y-71100000D03*
X114000000Y-71100000D03*
X114950000Y-71100000D03*
D18*
X117300000Y-60150000D03*
X112700000Y-60150000D03*
X115000000Y-60150000D03*
D17*
X115000000Y-53850000D03*
D21*
X117865000Y-34500000D03*
X121135000Y-34500000D03*
D12*
X182670000Y-68040000D03*
X182670000Y-66040000D03*
D11*
X172000000Y-71000000D03*
X170000000Y-71000000D03*
M02*
