G04 #@! TF.GenerationSoftware,KiCad,Pcbnew,no-vcs-found-7650~57~ubuntu14.04.1*
G04 #@! TF.CreationDate,2017-02-13T23:40:00+01:00*
G04 #@! TF.ProjectId,Wifi_PB_panel,576966695F50425F70616E656C2E6B69,V0.1*
G04 #@! TF.FileFunction,Paste,Top*
G04 #@! TF.FilePolarity,Positive*
%FSLAX46Y46*%
G04 Gerber Fmt 4.6, Leading zero omitted, Abs format (unit mm)*
G04 Created by KiCad (PCBNEW no-vcs-found-7650~57~ubuntu14.04.1) date Mon Feb 13 23:40:00 2017*
%MOMM*%
%LPD*%
G01*
G04 APERTURE LIST*
%ADD10C,0.100000*%
%ADD11R,1.300000X1.000000*%
%ADD12R,2.500000X1.600000*%
%ADD13R,1.250000X1.000000*%
%ADD14R,1.100000X2.500000*%
%ADD15O,1.100000X2.500000*%
%ADD16O,2.400000X1.100000*%
%ADD17R,1.200000X1.200000*%
%ADD18R,1.000000X1.300000*%
%ADD19R,0.900000X0.800000*%
%ADD20R,3.500000X1.600000*%
%ADD21R,0.300000X1.600000*%
%ADD22R,0.600000X1.500000*%
%ADD23R,1.000000X1.250000*%
%ADD24R,2.250000X0.500000*%
%ADD25R,3.500000X2.050000*%
%ADD26R,4.000000X2.050000*%
%ADD27R,2.500000X1.000000*%
G04 APERTURE END LIST*
D10*
D11*
X126075000Y-99300000D03*
X126075000Y-97300000D03*
D12*
X172750000Y-114300000D03*
X165250000Y-114300000D03*
X151250000Y-119300000D03*
X158750000Y-119300000D03*
D13*
X111000000Y-94300000D03*
X111000000Y-92300000D03*
D11*
X123750000Y-99300000D03*
X123750000Y-97300000D03*
D14*
X109000000Y-119000000D03*
D15*
X111000000Y-119000000D03*
X113000000Y-119000000D03*
X115000000Y-119000000D03*
X117000000Y-119000000D03*
X119000000Y-119000000D03*
X121000000Y-119000000D03*
X123000000Y-119000000D03*
D16*
X124750000Y-116310000D03*
X124750000Y-114310000D03*
X124750000Y-112310000D03*
X124750000Y-110310000D03*
X124750000Y-108310000D03*
X124750000Y-106310000D03*
D15*
X123000000Y-103600000D03*
X121000000Y-103700000D03*
X119000000Y-103600000D03*
X117000000Y-103600000D03*
X115000000Y-103600000D03*
X113000000Y-103600000D03*
X111000000Y-103600000D03*
X109000000Y-103600000D03*
D17*
X153900000Y-116300000D03*
X156100000Y-116300000D03*
D18*
X129200000Y-114300000D03*
X127200000Y-114300000D03*
X114250000Y-100550000D03*
X116250000Y-100550000D03*
X112250000Y-100550000D03*
X110250000Y-100550000D03*
D19*
X128075000Y-102450000D03*
X126075000Y-103400000D03*
X126075000Y-101500000D03*
D20*
X115000000Y-89738400D03*
X115000000Y-84861600D03*
D19*
X121500000Y-99250000D03*
X121500000Y-97350000D03*
X119500000Y-98300000D03*
D17*
X153900000Y-106300000D03*
X156100000Y-106300000D03*
D13*
X111000000Y-88300000D03*
X111000000Y-90300000D03*
D21*
X119250000Y-86300000D03*
X120200000Y-86300000D03*
X121150000Y-86300000D03*
D17*
X170100000Y-111300000D03*
X167900000Y-111300000D03*
D13*
X128450000Y-97300000D03*
X128450000Y-99300000D03*
D12*
X144750000Y-114300000D03*
X137250000Y-114300000D03*
X151250000Y-109300000D03*
X158750000Y-109300000D03*
D17*
X142100000Y-111300000D03*
X139900000Y-111300000D03*
X108900000Y-124300000D03*
X111100000Y-124300000D03*
D13*
X111000000Y-96300000D03*
X111000000Y-98300000D03*
D22*
X128445000Y-89600000D03*
X127175000Y-89600000D03*
X125905000Y-89600000D03*
X124635000Y-89600000D03*
X123365000Y-89600000D03*
X122095000Y-89600000D03*
X120825000Y-89600000D03*
X119555000Y-89600000D03*
X119555000Y-95000000D03*
X120825000Y-95000000D03*
X122095000Y-95000000D03*
X123365000Y-95000000D03*
X124635000Y-95000000D03*
X125905000Y-95000000D03*
X127175000Y-95000000D03*
X128445000Y-95000000D03*
D23*
X129200000Y-112300000D03*
X127200000Y-112300000D03*
X124630000Y-86290000D03*
X126630000Y-86290000D03*
D18*
X127200000Y-106300000D03*
X129200000Y-106300000D03*
X129200000Y-108300000D03*
X127200000Y-108300000D03*
X127200000Y-110300000D03*
X129200000Y-110300000D03*
X127200000Y-116300000D03*
X129200000Y-116300000D03*
X116000000Y-96300000D03*
X114000000Y-96300000D03*
X114000000Y-93300000D03*
X116000000Y-93300000D03*
D24*
X107325000Y-93500000D03*
X107325000Y-92700000D03*
X107325000Y-91900000D03*
X107325000Y-94300000D03*
X107325000Y-95100000D03*
D25*
X107325000Y-88575000D03*
X107325000Y-98425000D03*
D26*
X103075000Y-88575000D03*
X103075000Y-98425000D03*
D27*
X127500000Y-118800000D03*
X127500000Y-121800000D03*
D22*
X128445000Y-44700000D03*
X127175000Y-44700000D03*
X125905000Y-44700000D03*
X124635000Y-44700000D03*
X123365000Y-44700000D03*
X122095000Y-44700000D03*
X120825000Y-44700000D03*
X119555000Y-44700000D03*
X119555000Y-39300000D03*
X120825000Y-39300000D03*
X122095000Y-39300000D03*
X123365000Y-39300000D03*
X124635000Y-39300000D03*
X125905000Y-39300000D03*
X127175000Y-39300000D03*
X128445000Y-39300000D03*
D15*
X109000000Y-53300000D03*
X111000000Y-53300000D03*
X113000000Y-53300000D03*
X115000000Y-53300000D03*
X117000000Y-53300000D03*
X119000000Y-53300000D03*
X121000000Y-53400000D03*
X123000000Y-53300000D03*
D16*
X124750000Y-56010000D03*
X124750000Y-58010000D03*
X124750000Y-60010000D03*
X124750000Y-62010000D03*
X124750000Y-64010000D03*
X124750000Y-66010000D03*
D15*
X123000000Y-68700000D03*
X121000000Y-68700000D03*
X119000000Y-68700000D03*
X117000000Y-68700000D03*
X115000000Y-68700000D03*
X113000000Y-68700000D03*
X111000000Y-68700000D03*
D14*
X109000000Y-68700000D03*
D13*
X128450000Y-49000000D03*
X128450000Y-47000000D03*
D23*
X126630000Y-35990000D03*
X124630000Y-35990000D03*
X127200000Y-62000000D03*
X129200000Y-62000000D03*
D27*
X127500000Y-71500000D03*
X127500000Y-68500000D03*
D13*
X111000000Y-40000000D03*
X111000000Y-38000000D03*
X111000000Y-42000000D03*
X111000000Y-44000000D03*
X111000000Y-48000000D03*
X111000000Y-46000000D03*
D17*
X111100000Y-74000000D03*
X108900000Y-74000000D03*
X139900000Y-61000000D03*
X142100000Y-61000000D03*
X156100000Y-56000000D03*
X153900000Y-56000000D03*
X167900000Y-61000000D03*
X170100000Y-61000000D03*
X156100000Y-66000000D03*
X153900000Y-66000000D03*
D19*
X126075000Y-51200000D03*
X126075000Y-53100000D03*
X128075000Y-52150000D03*
X119500000Y-48000000D03*
X121500000Y-47050000D03*
X121500000Y-48950000D03*
D18*
X129200000Y-60000000D03*
X127200000Y-60000000D03*
X127200000Y-58000000D03*
X129200000Y-58000000D03*
X129200000Y-66000000D03*
X127200000Y-66000000D03*
X127200000Y-64000000D03*
X129200000Y-64000000D03*
X129200000Y-56000000D03*
X127200000Y-56000000D03*
X110250000Y-50250000D03*
X112250000Y-50250000D03*
X116250000Y-50250000D03*
X114250000Y-50250000D03*
D11*
X123750000Y-47000000D03*
X123750000Y-49000000D03*
X126075000Y-47000000D03*
X126075000Y-49000000D03*
D18*
X116000000Y-43000000D03*
X114000000Y-43000000D03*
X114000000Y-46000000D03*
X116000000Y-46000000D03*
D12*
X158750000Y-69000000D03*
X151250000Y-69000000D03*
X165250000Y-64000000D03*
X172750000Y-64000000D03*
X158750000Y-59000000D03*
X151250000Y-59000000D03*
X137250000Y-64000000D03*
X144750000Y-64000000D03*
D20*
X115000000Y-34561600D03*
X115000000Y-39438400D03*
D26*
X103075000Y-48125000D03*
X103075000Y-38275000D03*
D25*
X107325000Y-48125000D03*
X107325000Y-38275000D03*
D24*
X107325000Y-44800000D03*
X107325000Y-44000000D03*
X107325000Y-41600000D03*
X107325000Y-42400000D03*
X107325000Y-43200000D03*
D21*
X121150000Y-36000000D03*
X120200000Y-36000000D03*
X119250000Y-36000000D03*
M02*
