G04 #@! TF.GenerationSoftware,KiCad,Pcbnew,no-vcs-found-7650~57~ubuntu14.04.1*
G04 #@! TF.CreationDate,2017-02-13T23:40:00+01:00*
G04 #@! TF.ProjectId,Wifi_PB_panel,576966695F50425F70616E656C2E6B69,V0.1*
G04 #@! TF.FileFunction,Soldermask,Bot*
G04 #@! TF.FilePolarity,Negative*
%FSLAX46Y46*%
G04 Gerber Fmt 4.6, Leading zero omitted, Abs format (unit mm)*
G04 Created by KiCad (PCBNEW no-vcs-found-7650~57~ubuntu14.04.1) date Mon Feb 13 23:40:00 2017*
%MOMM*%
%LPD*%
G01*
G04 APERTURE LIST*
%ADD10C,0.100000*%
%ADD11R,1.254000X1.554000*%
%ADD12R,1.554000X1.254000*%
%ADD13R,1.054000X1.154000*%
%ADD14R,1.854000X1.254000*%
%ADD15R,1.254000X1.504000*%
%ADD16R,1.504000X1.254000*%
%ADD17R,4.054000X2.254000*%
%ADD18R,1.754000X2.254000*%
%ADD19R,1.754000X0.854000*%
%ADD20R,0.904000X1.314000*%
%ADD21O,1.854000X2.254000*%
%ADD22R,1.164000X1.474000*%
%ADD23R,1.954000X1.954000*%
%ADD24O,1.954000X1.954000*%
%ADD25O,1.778000X1.454000*%
%ADD26O,1.154000X1.554000*%
%ADD27R,1.154000X1.554000*%
%ADD28C,1.454000*%
%ADD29R,1.754000X0.704000*%
%ADD30R,2.004000X0.704000*%
%ADD31R,1.154000X1.054000*%
%ADD32R,1.104000X1.104000*%
%ADD33C,1.104000*%
%ADD34R,3.754000X3.754000*%
%ADD35R,1.254000X1.854000*%
%ADD36O,2.754000X3.054000*%
%ADD37O,1.654000X2.254000*%
%ADD38R,0.904000X0.554000*%
%ADD39C,1.254000*%
%ADD40R,1.314000X0.904000*%
G04 APERTURE END LIST*
D10*
D11*
X114000000Y-86800000D03*
X116000000Y-86800000D03*
X114000000Y-90300000D03*
X116000000Y-90300000D03*
X112500000Y-97000000D03*
X110500000Y-97000000D03*
X191500000Y-93300000D03*
X193500000Y-93300000D03*
X191500000Y-119300000D03*
X193500000Y-119300000D03*
X163000000Y-121300000D03*
X165000000Y-121300000D03*
X193500000Y-97300000D03*
X191500000Y-97300000D03*
D12*
X107500000Y-92300000D03*
X107500000Y-90300000D03*
D11*
X146300000Y-94300000D03*
X144300000Y-94300000D03*
X155000000Y-115300000D03*
X153000000Y-115300000D03*
D13*
X169550000Y-106750000D03*
X167650000Y-106750000D03*
X168600000Y-104750000D03*
D14*
X121190000Y-95790000D03*
X121190000Y-92790000D03*
D15*
X191500000Y-95300000D03*
X193500000Y-95300000D03*
X134800000Y-109300000D03*
X132800000Y-109300000D03*
D16*
X110000000Y-110450000D03*
X110000000Y-108450000D03*
D11*
X155000000Y-121300000D03*
X153000000Y-121300000D03*
X165000000Y-115300000D03*
X163000000Y-115300000D03*
X144300000Y-100300000D03*
X146300000Y-100300000D03*
D17*
X115000000Y-104150000D03*
D18*
X115000000Y-110450000D03*
X112700000Y-110450000D03*
X117300000Y-110450000D03*
D11*
X146300000Y-104300000D03*
X144300000Y-104300000D03*
D14*
X110000000Y-117800000D03*
X110000000Y-120800000D03*
D12*
X158000000Y-128000000D03*
X158000000Y-126000000D03*
X151000000Y-126000000D03*
X151000000Y-128000000D03*
D19*
X185300000Y-109745000D03*
X185300000Y-108475000D03*
X185300000Y-107205000D03*
X185300000Y-105935000D03*
X185300000Y-104665000D03*
X185300000Y-103395000D03*
X185300000Y-102125000D03*
X185300000Y-100855000D03*
X190700000Y-100855000D03*
X190700000Y-102125000D03*
X190700000Y-103395000D03*
X190700000Y-104665000D03*
X190700000Y-105935000D03*
X190700000Y-107205000D03*
X190700000Y-108475000D03*
X190700000Y-109745000D03*
D20*
X114950000Y-121400000D03*
X114000000Y-121400000D03*
X113050000Y-121400000D03*
X113050000Y-119200000D03*
X114950000Y-119200000D03*
D11*
X170000000Y-121300000D03*
X172000000Y-121300000D03*
X167750000Y-85300000D03*
X165750000Y-85300000D03*
D12*
X107500000Y-95300000D03*
X107500000Y-97300000D03*
D21*
X137000000Y-91300000D03*
X147000000Y-91300000D03*
D13*
X161550000Y-106750000D03*
X159650000Y-106750000D03*
X160600000Y-104750000D03*
D15*
X134800000Y-95300000D03*
X132800000Y-95300000D03*
D22*
X121135000Y-84800000D03*
X117865000Y-84800000D03*
D23*
X170210000Y-89300000D03*
D24*
X172750000Y-89300000D03*
X175290000Y-89300000D03*
D11*
X175951854Y-108049480D03*
X173951854Y-108049480D03*
X146300000Y-118300000D03*
X144300000Y-118300000D03*
X144300000Y-114300000D03*
X146300000Y-114300000D03*
D12*
X172000000Y-128000000D03*
X172000000Y-126000000D03*
X165000000Y-126000000D03*
X165000000Y-128000000D03*
D11*
X128800000Y-104300000D03*
X126800000Y-104300000D03*
X126800000Y-102300000D03*
X128800000Y-102300000D03*
D25*
X162620000Y-98920000D03*
X162620000Y-96380000D03*
X162620000Y-93840000D03*
X162620000Y-91300000D03*
X162620000Y-88760000D03*
X162620000Y-86220000D03*
X155000000Y-98920000D03*
X155000000Y-96380000D03*
X155000000Y-93840000D03*
X155000000Y-91300000D03*
X155000000Y-88760000D03*
X155000000Y-86220000D03*
D26*
X187540000Y-85300000D03*
X183730000Y-85300000D03*
D27*
X186270000Y-85300000D03*
D26*
X185000000Y-85300000D03*
D10*
G36*
X116161426Y-97073350D02*
X116168483Y-97074397D01*
X116175404Y-97076130D01*
X116182121Y-97078534D01*
X116188571Y-97081584D01*
X116194690Y-97085252D01*
X116200420Y-97089502D01*
X116205707Y-97094293D01*
X116210498Y-97099580D01*
X116214748Y-97105310D01*
X116218416Y-97111429D01*
X116221466Y-97117879D01*
X116223870Y-97124596D01*
X116225603Y-97131517D01*
X116226650Y-97138574D01*
X116227000Y-97145700D01*
X116227000Y-101454300D01*
X116226650Y-101461426D01*
X116225603Y-101468483D01*
X116223870Y-101475404D01*
X116221466Y-101482121D01*
X116218416Y-101488571D01*
X116214748Y-101494690D01*
X116210498Y-101500420D01*
X116205707Y-101505707D01*
X116200420Y-101510498D01*
X116194690Y-101514748D01*
X116188571Y-101518416D01*
X116182121Y-101521466D01*
X116175404Y-101523870D01*
X116168483Y-101525603D01*
X116161426Y-101526650D01*
X116154300Y-101527000D01*
X114845700Y-101527000D01*
X114838574Y-101526650D01*
X114831517Y-101525603D01*
X114824596Y-101523870D01*
X114817879Y-101521466D01*
X114811429Y-101518416D01*
X114805310Y-101514748D01*
X114799580Y-101510498D01*
X114794293Y-101505707D01*
X114789502Y-101500420D01*
X114785252Y-101494690D01*
X114781584Y-101488571D01*
X114778534Y-101482121D01*
X114776130Y-101475404D01*
X114774397Y-101468483D01*
X114773350Y-101461426D01*
X114773000Y-101454300D01*
X114773000Y-97145700D01*
X114773350Y-97138574D01*
X114774397Y-97131517D01*
X114776130Y-97124596D01*
X114778534Y-97117879D01*
X114781584Y-97111429D01*
X114785252Y-97105310D01*
X114789502Y-97099580D01*
X114794293Y-97094293D01*
X114799580Y-97089502D01*
X114805310Y-97085252D01*
X114811429Y-97081584D01*
X114817879Y-97078534D01*
X114824596Y-97076130D01*
X114831517Y-97074397D01*
X114838574Y-97073350D01*
X114845700Y-97073000D01*
X116154300Y-97073000D01*
X116161426Y-97073350D01*
X116161426Y-97073350D01*
G37*
D28*
X115500000Y-99300000D03*
D10*
G36*
X119161426Y-97073350D02*
X119168483Y-97074397D01*
X119175404Y-97076130D01*
X119182121Y-97078534D01*
X119188571Y-97081584D01*
X119194690Y-97085252D01*
X119200420Y-97089502D01*
X119205707Y-97094293D01*
X119210498Y-97099580D01*
X119214748Y-97105310D01*
X119218416Y-97111429D01*
X119221466Y-97117879D01*
X119223870Y-97124596D01*
X119225603Y-97131517D01*
X119226650Y-97138574D01*
X119227000Y-97145700D01*
X119227000Y-101454300D01*
X119226650Y-101461426D01*
X119225603Y-101468483D01*
X119223870Y-101475404D01*
X119221466Y-101482121D01*
X119218416Y-101488571D01*
X119214748Y-101494690D01*
X119210498Y-101500420D01*
X119205707Y-101505707D01*
X119200420Y-101510498D01*
X119194690Y-101514748D01*
X119188571Y-101518416D01*
X119182121Y-101521466D01*
X119175404Y-101523870D01*
X119168483Y-101525603D01*
X119161426Y-101526650D01*
X119154300Y-101527000D01*
X117845700Y-101527000D01*
X117838574Y-101526650D01*
X117831517Y-101525603D01*
X117824596Y-101523870D01*
X117817879Y-101521466D01*
X117811429Y-101518416D01*
X117805310Y-101514748D01*
X117799580Y-101510498D01*
X117794293Y-101505707D01*
X117789502Y-101500420D01*
X117785252Y-101494690D01*
X117781584Y-101488571D01*
X117778534Y-101482121D01*
X117776130Y-101475404D01*
X117774397Y-101468483D01*
X117773350Y-101461426D01*
X117773000Y-101454300D01*
X117773000Y-97145700D01*
X117773350Y-97138574D01*
X117774397Y-97131517D01*
X117776130Y-97124596D01*
X117778534Y-97117879D01*
X117781584Y-97111429D01*
X117785252Y-97105310D01*
X117789502Y-97099580D01*
X117794293Y-97094293D01*
X117799580Y-97089502D01*
X117805310Y-97085252D01*
X117811429Y-97081584D01*
X117817879Y-97078534D01*
X117824596Y-97076130D01*
X117831517Y-97074397D01*
X117838574Y-97073350D01*
X117845700Y-97073000D01*
X119154300Y-97073000D01*
X119161426Y-97073350D01*
X119161426Y-97073350D01*
G37*
D28*
X118500000Y-99300000D03*
D29*
X174001854Y-106324480D03*
X174001854Y-105674480D03*
X174001854Y-105024480D03*
X174001854Y-104374480D03*
X174001854Y-103724480D03*
X174001854Y-103074480D03*
X174001854Y-102424480D03*
X174001854Y-101774480D03*
X179901854Y-101774480D03*
X179901854Y-102424480D03*
X179901854Y-103074480D03*
X179901854Y-103724480D03*
X179901854Y-104374480D03*
X179901854Y-105024480D03*
X179901854Y-105674480D03*
X179901854Y-106324480D03*
D23*
X196000000Y-88760000D03*
D24*
X196000000Y-91300000D03*
X196000000Y-93840000D03*
X196000000Y-96380000D03*
D30*
X133200000Y-106525000D03*
X133200000Y-105875000D03*
X133200000Y-105225000D03*
X133200000Y-104575000D03*
X133200000Y-103925000D03*
X133200000Y-103275000D03*
X133200000Y-102625000D03*
X133200000Y-101975000D03*
X133200000Y-101325000D03*
X133200000Y-100675000D03*
X133200000Y-100025000D03*
X133200000Y-99375000D03*
X133200000Y-98725000D03*
X133200000Y-98075000D03*
X140400000Y-98075000D03*
X140400000Y-98725000D03*
X140400000Y-99375000D03*
X140400000Y-100025000D03*
X140400000Y-100675000D03*
X140400000Y-101325000D03*
X140400000Y-101975000D03*
X140400000Y-102625000D03*
X140400000Y-103275000D03*
X140400000Y-103925000D03*
X140400000Y-104575000D03*
X140400000Y-105225000D03*
X140400000Y-105875000D03*
X140400000Y-106525000D03*
D13*
X164000000Y-119300000D03*
X164950000Y-117300000D03*
X163050000Y-117300000D03*
D31*
X110500000Y-93350000D03*
X110500000Y-91450000D03*
X112500000Y-92400000D03*
D11*
X159600000Y-108750000D03*
X161600000Y-108750000D03*
X144300000Y-108300000D03*
X146300000Y-108300000D03*
D23*
X170210000Y-97300000D03*
D24*
X172750000Y-97300000D03*
X175290000Y-97300000D03*
D12*
X184650000Y-91050000D03*
X184650000Y-89050000D03*
X182650000Y-91050000D03*
X182650000Y-89050000D03*
X124990000Y-94690000D03*
X124990000Y-92690000D03*
D14*
X119000000Y-87300000D03*
X119000000Y-90300000D03*
D13*
X164600000Y-104750000D03*
X163650000Y-106750000D03*
X165550000Y-106750000D03*
D11*
X165600000Y-108750000D03*
X163600000Y-108750000D03*
X128800000Y-100300000D03*
X126800000Y-100300000D03*
D15*
X187000000Y-98300000D03*
X185000000Y-98300000D03*
X193500000Y-113300000D03*
X191500000Y-113300000D03*
X170600000Y-115300000D03*
X168600000Y-115300000D03*
D12*
X144000000Y-128000000D03*
X144000000Y-126000000D03*
D32*
X111000000Y-127300000D03*
D33*
X109750000Y-127300000D03*
D15*
X168600000Y-113300000D03*
X170600000Y-113300000D03*
D34*
X126000000Y-127000000D03*
D11*
X153600000Y-108750000D03*
X151600000Y-108750000D03*
X144300000Y-106300000D03*
X146300000Y-106300000D03*
D15*
X191500000Y-117300000D03*
X193500000Y-117300000D03*
D11*
X193500000Y-115300000D03*
X191500000Y-115300000D03*
D34*
X147000000Y-127000000D03*
X140000000Y-127000000D03*
X133000000Y-127000000D03*
X154000000Y-127000000D03*
D30*
X140400000Y-120525000D03*
X140400000Y-119875000D03*
X140400000Y-119225000D03*
X140400000Y-118575000D03*
X140400000Y-117925000D03*
X140400000Y-117275000D03*
X140400000Y-116625000D03*
X140400000Y-115975000D03*
X140400000Y-115325000D03*
X140400000Y-114675000D03*
X140400000Y-114025000D03*
X140400000Y-113375000D03*
X140400000Y-112725000D03*
X140400000Y-112075000D03*
X133200000Y-112075000D03*
X133200000Y-112725000D03*
X133200000Y-113375000D03*
X133200000Y-114025000D03*
X133200000Y-114675000D03*
X133200000Y-115325000D03*
X133200000Y-115975000D03*
X133200000Y-116625000D03*
X133200000Y-117275000D03*
X133200000Y-117925000D03*
X133200000Y-118575000D03*
X133200000Y-119225000D03*
X133200000Y-119875000D03*
X133200000Y-120525000D03*
D11*
X126800000Y-110300000D03*
X128800000Y-110300000D03*
X128800000Y-112300000D03*
X126800000Y-112300000D03*
X128800000Y-98300000D03*
X126800000Y-98300000D03*
X144300000Y-116300000D03*
X146300000Y-116300000D03*
D13*
X153050000Y-117300000D03*
X154950000Y-117300000D03*
X154000000Y-119300000D03*
X152600000Y-104750000D03*
X151650000Y-106750000D03*
X153550000Y-106750000D03*
D28*
X185280000Y-114660000D03*
X188680000Y-114660000D03*
D15*
X153000000Y-113300000D03*
X155000000Y-113300000D03*
D13*
X124950000Y-88900000D03*
X123050000Y-88900000D03*
X124000000Y-86900000D03*
D15*
X191500000Y-91300000D03*
X193500000Y-91300000D03*
D24*
X175290000Y-93300000D03*
X172750000Y-93300000D03*
D23*
X170210000Y-93300000D03*
D35*
X177300000Y-111280000D03*
X174300000Y-111280000D03*
D11*
X128800000Y-108300000D03*
X126800000Y-108300000D03*
D19*
X179700000Y-113490000D03*
X179700000Y-114760000D03*
X179700000Y-116030000D03*
X179700000Y-117300000D03*
X179700000Y-118570000D03*
X179700000Y-119840000D03*
X179700000Y-121110000D03*
X174300000Y-121110000D03*
X174300000Y-119840000D03*
X174300000Y-118570000D03*
X174300000Y-117300000D03*
X174300000Y-116030000D03*
X174300000Y-114760000D03*
X174300000Y-113490000D03*
D35*
X108500000Y-86800000D03*
X111500000Y-86800000D03*
D11*
X146300000Y-110300000D03*
X144300000Y-110300000D03*
D15*
X179951854Y-108049480D03*
X177951854Y-108049480D03*
D14*
X120500000Y-107800000D03*
X120500000Y-110800000D03*
D23*
X196000000Y-109400000D03*
D24*
X196000000Y-106860000D03*
X196000000Y-104320000D03*
X196000000Y-101780000D03*
D15*
X165000000Y-113300000D03*
X163000000Y-113300000D03*
X179750000Y-85300000D03*
X177750000Y-85300000D03*
X177750000Y-89300000D03*
X179750000Y-89300000D03*
D36*
X191600000Y-123000000D03*
X182400000Y-123000000D03*
D37*
X189500000Y-126300000D03*
X184500000Y-126300000D03*
X187000000Y-126300000D03*
D14*
X118000000Y-117800000D03*
X118000000Y-120800000D03*
D15*
X179750000Y-93300000D03*
X177750000Y-93300000D03*
D12*
X123000000Y-126000000D03*
X123000000Y-128000000D03*
D11*
X165750000Y-97300000D03*
X167750000Y-97300000D03*
X126800000Y-106300000D03*
X128800000Y-106300000D03*
D24*
X175290000Y-85300000D03*
X172750000Y-85300000D03*
D23*
X170210000Y-85300000D03*
D11*
X109340000Y-124300000D03*
X111340000Y-124300000D03*
X112900000Y-116300000D03*
X114900000Y-116300000D03*
X144300000Y-96300000D03*
X146300000Y-96300000D03*
X155600000Y-108750000D03*
X157600000Y-108750000D03*
D13*
X156600000Y-104750000D03*
X155650000Y-106750000D03*
X157550000Y-106750000D03*
D38*
X160550000Y-114800000D03*
X160550000Y-115300000D03*
X160550000Y-115800000D03*
X160550000Y-116300000D03*
X160550000Y-116800000D03*
X157450000Y-116800000D03*
X157450000Y-116300000D03*
X157450000Y-115800000D03*
X157450000Y-115300000D03*
X157450000Y-114800000D03*
D15*
X177750000Y-97300000D03*
X179750000Y-97300000D03*
D35*
X136800000Y-95300000D03*
X139800000Y-95300000D03*
D11*
X146300000Y-112300000D03*
X144300000Y-112300000D03*
X146300000Y-102300000D03*
X144300000Y-102300000D03*
X146300000Y-98300000D03*
X144300000Y-98300000D03*
D24*
X196000000Y-121380000D03*
X196000000Y-118840000D03*
X196000000Y-116300000D03*
D23*
X196000000Y-113760000D03*
D34*
X119000000Y-127000000D03*
D12*
X137000000Y-126000000D03*
X137000000Y-128000000D03*
X130000000Y-128000000D03*
X130000000Y-126000000D03*
D39*
X105000000Y-95700000D03*
X105000000Y-91300000D03*
D35*
X139800000Y-109300000D03*
X136800000Y-109300000D03*
D12*
X186650000Y-89050000D03*
X186650000Y-91050000D03*
X182670000Y-116340000D03*
X182670000Y-118340000D03*
D40*
X115900000Y-95250000D03*
X115900000Y-94300000D03*
X115900000Y-93350000D03*
X118100000Y-93350000D03*
X118100000Y-95250000D03*
X118100000Y-94300000D03*
D34*
X175000000Y-127000000D03*
X168000000Y-127000000D03*
X161000000Y-127000000D03*
D11*
X167750000Y-93300000D03*
X165750000Y-93300000D03*
X165750000Y-89300000D03*
X167750000Y-89300000D03*
X169600000Y-108750000D03*
X167600000Y-108750000D03*
D40*
X118100000Y-44000000D03*
X118100000Y-44950000D03*
X118100000Y-43050000D03*
X115900000Y-43050000D03*
X115900000Y-44000000D03*
X115900000Y-44950000D03*
D30*
X140400000Y-56225000D03*
X140400000Y-55575000D03*
X140400000Y-54925000D03*
X140400000Y-54275000D03*
X140400000Y-53625000D03*
X140400000Y-52975000D03*
X140400000Y-52325000D03*
X140400000Y-51675000D03*
X140400000Y-51025000D03*
X140400000Y-50375000D03*
X140400000Y-49725000D03*
X140400000Y-49075000D03*
X140400000Y-48425000D03*
X140400000Y-47775000D03*
X133200000Y-47775000D03*
X133200000Y-48425000D03*
X133200000Y-49075000D03*
X133200000Y-49725000D03*
X133200000Y-50375000D03*
X133200000Y-51025000D03*
X133200000Y-51675000D03*
X133200000Y-52325000D03*
X133200000Y-52975000D03*
X133200000Y-53625000D03*
X133200000Y-54275000D03*
X133200000Y-54925000D03*
X133200000Y-55575000D03*
X133200000Y-56225000D03*
X133200000Y-70225000D03*
X133200000Y-69575000D03*
X133200000Y-68925000D03*
X133200000Y-68275000D03*
X133200000Y-67625000D03*
X133200000Y-66975000D03*
X133200000Y-66325000D03*
X133200000Y-65675000D03*
X133200000Y-65025000D03*
X133200000Y-64375000D03*
X133200000Y-63725000D03*
X133200000Y-63075000D03*
X133200000Y-62425000D03*
X133200000Y-61775000D03*
X140400000Y-61775000D03*
X140400000Y-62425000D03*
X140400000Y-63075000D03*
X140400000Y-63725000D03*
X140400000Y-64375000D03*
X140400000Y-65025000D03*
X140400000Y-65675000D03*
X140400000Y-66325000D03*
X140400000Y-66975000D03*
X140400000Y-67625000D03*
X140400000Y-68275000D03*
X140400000Y-68925000D03*
X140400000Y-69575000D03*
X140400000Y-70225000D03*
D38*
X157450000Y-64500000D03*
X157450000Y-65000000D03*
X157450000Y-65500000D03*
X157450000Y-66000000D03*
X157450000Y-66500000D03*
X160550000Y-66500000D03*
X160550000Y-66000000D03*
X160550000Y-65500000D03*
X160550000Y-65000000D03*
X160550000Y-64500000D03*
D29*
X179901854Y-56024480D03*
X179901854Y-55374480D03*
X179901854Y-54724480D03*
X179901854Y-54074480D03*
X179901854Y-53424480D03*
X179901854Y-52774480D03*
X179901854Y-52124480D03*
X179901854Y-51474480D03*
X174001854Y-51474480D03*
X174001854Y-52124480D03*
X174001854Y-52774480D03*
X174001854Y-53424480D03*
X174001854Y-54074480D03*
X174001854Y-54724480D03*
X174001854Y-55374480D03*
X174001854Y-56024480D03*
D19*
X174300000Y-63190000D03*
X174300000Y-64460000D03*
X174300000Y-65730000D03*
X174300000Y-67000000D03*
X174300000Y-68270000D03*
X174300000Y-69540000D03*
X174300000Y-70810000D03*
X179700000Y-70810000D03*
X179700000Y-69540000D03*
X179700000Y-68270000D03*
X179700000Y-67000000D03*
X179700000Y-65730000D03*
X179700000Y-64460000D03*
X179700000Y-63190000D03*
X190700000Y-59445000D03*
X190700000Y-58175000D03*
X190700000Y-56905000D03*
X190700000Y-55635000D03*
X190700000Y-54365000D03*
X190700000Y-53095000D03*
X190700000Y-51825000D03*
X190700000Y-50555000D03*
X185300000Y-50555000D03*
X185300000Y-51825000D03*
X185300000Y-53095000D03*
X185300000Y-54365000D03*
X185300000Y-55635000D03*
X185300000Y-56905000D03*
X185300000Y-58175000D03*
X185300000Y-59445000D03*
D25*
X155000000Y-35920000D03*
X155000000Y-38460000D03*
X155000000Y-41000000D03*
X155000000Y-43540000D03*
X155000000Y-46080000D03*
X155000000Y-48620000D03*
X162620000Y-35920000D03*
X162620000Y-38460000D03*
X162620000Y-41000000D03*
X162620000Y-43540000D03*
X162620000Y-46080000D03*
X162620000Y-48620000D03*
D21*
X147000000Y-41000000D03*
X137000000Y-41000000D03*
D14*
X110000000Y-70500000D03*
X110000000Y-67500000D03*
D16*
X110000000Y-58150000D03*
X110000000Y-60150000D03*
D14*
X120500000Y-60500000D03*
X120500000Y-57500000D03*
X118000000Y-70500000D03*
X118000000Y-67500000D03*
D35*
X111500000Y-36500000D03*
X108500000Y-36500000D03*
D15*
X155000000Y-63000000D03*
X153000000Y-63000000D03*
X163000000Y-63000000D03*
X165000000Y-63000000D03*
D35*
X139800000Y-45000000D03*
X136800000Y-45000000D03*
X136800000Y-59000000D03*
X139800000Y-59000000D03*
D15*
X132800000Y-45000000D03*
X134800000Y-45000000D03*
X132800000Y-59000000D03*
X134800000Y-59000000D03*
X168600000Y-65000000D03*
X170600000Y-65000000D03*
X170600000Y-63000000D03*
X168600000Y-63000000D03*
D35*
X174300000Y-60980000D03*
X177300000Y-60980000D03*
D15*
X177951854Y-57749480D03*
X179951854Y-57749480D03*
X177750000Y-35000000D03*
X179750000Y-35000000D03*
X179750000Y-39000000D03*
X177750000Y-39000000D03*
X177750000Y-43000000D03*
X179750000Y-43000000D03*
X179750000Y-47000000D03*
X177750000Y-47000000D03*
X191500000Y-63000000D03*
X193500000Y-63000000D03*
X185000000Y-48000000D03*
X187000000Y-48000000D03*
X193500000Y-67000000D03*
X191500000Y-67000000D03*
X193500000Y-41000000D03*
X191500000Y-41000000D03*
X193500000Y-45000000D03*
X191500000Y-45000000D03*
D14*
X121190000Y-42490000D03*
X121190000Y-45490000D03*
X119000000Y-40000000D03*
X119000000Y-37000000D03*
D10*
G36*
X119161426Y-46773350D02*
X119168483Y-46774397D01*
X119175404Y-46776130D01*
X119182121Y-46778534D01*
X119188571Y-46781584D01*
X119194690Y-46785252D01*
X119200420Y-46789502D01*
X119205707Y-46794293D01*
X119210498Y-46799580D01*
X119214748Y-46805310D01*
X119218416Y-46811429D01*
X119221466Y-46817879D01*
X119223870Y-46824596D01*
X119225603Y-46831517D01*
X119226650Y-46838574D01*
X119227000Y-46845700D01*
X119227000Y-51154300D01*
X119226650Y-51161426D01*
X119225603Y-51168483D01*
X119223870Y-51175404D01*
X119221466Y-51182121D01*
X119218416Y-51188571D01*
X119214748Y-51194690D01*
X119210498Y-51200420D01*
X119205707Y-51205707D01*
X119200420Y-51210498D01*
X119194690Y-51214748D01*
X119188571Y-51218416D01*
X119182121Y-51221466D01*
X119175404Y-51223870D01*
X119168483Y-51225603D01*
X119161426Y-51226650D01*
X119154300Y-51227000D01*
X117845700Y-51227000D01*
X117838574Y-51226650D01*
X117831517Y-51225603D01*
X117824596Y-51223870D01*
X117817879Y-51221466D01*
X117811429Y-51218416D01*
X117805310Y-51214748D01*
X117799580Y-51210498D01*
X117794293Y-51205707D01*
X117789502Y-51200420D01*
X117785252Y-51194690D01*
X117781584Y-51188571D01*
X117778534Y-51182121D01*
X117776130Y-51175404D01*
X117774397Y-51168483D01*
X117773350Y-51161426D01*
X117773000Y-51154300D01*
X117773000Y-46845700D01*
X117773350Y-46838574D01*
X117774397Y-46831517D01*
X117776130Y-46824596D01*
X117778534Y-46817879D01*
X117781584Y-46811429D01*
X117785252Y-46805310D01*
X117789502Y-46799580D01*
X117794293Y-46794293D01*
X117799580Y-46789502D01*
X117805310Y-46785252D01*
X117811429Y-46781584D01*
X117817879Y-46778534D01*
X117824596Y-46776130D01*
X117831517Y-46774397D01*
X117838574Y-46773350D01*
X117845700Y-46773000D01*
X119154300Y-46773000D01*
X119161426Y-46773350D01*
X119161426Y-46773350D01*
G37*
D28*
X118500000Y-49000000D03*
D10*
G36*
X116161426Y-46773350D02*
X116168483Y-46774397D01*
X116175404Y-46776130D01*
X116182121Y-46778534D01*
X116188571Y-46781584D01*
X116194690Y-46785252D01*
X116200420Y-46789502D01*
X116205707Y-46794293D01*
X116210498Y-46799580D01*
X116214748Y-46805310D01*
X116218416Y-46811429D01*
X116221466Y-46817879D01*
X116223870Y-46824596D01*
X116225603Y-46831517D01*
X116226650Y-46838574D01*
X116227000Y-46845700D01*
X116227000Y-51154300D01*
X116226650Y-51161426D01*
X116225603Y-51168483D01*
X116223870Y-51175404D01*
X116221466Y-51182121D01*
X116218416Y-51188571D01*
X116214748Y-51194690D01*
X116210498Y-51200420D01*
X116205707Y-51205707D01*
X116200420Y-51210498D01*
X116194690Y-51214748D01*
X116188571Y-51218416D01*
X116182121Y-51221466D01*
X116175404Y-51223870D01*
X116168483Y-51225603D01*
X116161426Y-51226650D01*
X116154300Y-51227000D01*
X114845700Y-51227000D01*
X114838574Y-51226650D01*
X114831517Y-51225603D01*
X114824596Y-51223870D01*
X114817879Y-51221466D01*
X114811429Y-51218416D01*
X114805310Y-51214748D01*
X114799580Y-51210498D01*
X114794293Y-51205707D01*
X114789502Y-51200420D01*
X114785252Y-51194690D01*
X114781584Y-51188571D01*
X114778534Y-51182121D01*
X114776130Y-51175404D01*
X114774397Y-51168483D01*
X114773350Y-51161426D01*
X114773000Y-51154300D01*
X114773000Y-46845700D01*
X114773350Y-46838574D01*
X114774397Y-46831517D01*
X114776130Y-46824596D01*
X114778534Y-46817879D01*
X114781584Y-46811429D01*
X114785252Y-46805310D01*
X114789502Y-46799580D01*
X114794293Y-46794293D01*
X114799580Y-46789502D01*
X114805310Y-46785252D01*
X114811429Y-46781584D01*
X114817879Y-46778534D01*
X114824596Y-46776130D01*
X114831517Y-46774397D01*
X114838574Y-46773350D01*
X114845700Y-46773000D01*
X116154300Y-46773000D01*
X116161426Y-46773350D01*
X116161426Y-46773350D01*
G37*
D28*
X115500000Y-49000000D03*
D26*
X185000000Y-35000000D03*
D27*
X186270000Y-35000000D03*
D26*
X183730000Y-35000000D03*
X187540000Y-35000000D03*
D23*
X170210000Y-35000000D03*
D24*
X172750000Y-35000000D03*
X175290000Y-35000000D03*
X175290000Y-39000000D03*
X172750000Y-39000000D03*
D23*
X170210000Y-39000000D03*
X170210000Y-43000000D03*
D24*
X172750000Y-43000000D03*
X175290000Y-43000000D03*
X175290000Y-47000000D03*
X172750000Y-47000000D03*
D23*
X170210000Y-47000000D03*
D34*
X126000000Y-76700000D03*
X133000000Y-76700000D03*
X140000000Y-76700000D03*
X147000000Y-76700000D03*
X119000000Y-76700000D03*
D23*
X196000000Y-63460000D03*
D24*
X196000000Y-66000000D03*
X196000000Y-68540000D03*
X196000000Y-71080000D03*
X196000000Y-46080000D03*
X196000000Y-43540000D03*
X196000000Y-41000000D03*
D23*
X196000000Y-38460000D03*
D34*
X154000000Y-76700000D03*
X161000000Y-76700000D03*
X168000000Y-76700000D03*
X175000000Y-76700000D03*
D13*
X154000000Y-69000000D03*
X154950000Y-67000000D03*
X153050000Y-67000000D03*
X163050000Y-67000000D03*
X164950000Y-67000000D03*
X164000000Y-69000000D03*
X153550000Y-56450000D03*
X151650000Y-56450000D03*
X152600000Y-54450000D03*
X157550000Y-56450000D03*
X155650000Y-56450000D03*
X156600000Y-54450000D03*
X160600000Y-54450000D03*
X159650000Y-56450000D03*
X161550000Y-56450000D03*
X165550000Y-56450000D03*
X163650000Y-56450000D03*
X164600000Y-54450000D03*
X168600000Y-54450000D03*
X167650000Y-56450000D03*
X169550000Y-56450000D03*
D31*
X112500000Y-42100000D03*
X110500000Y-41150000D03*
X110500000Y-43050000D03*
D13*
X124000000Y-36600000D03*
X123050000Y-38600000D03*
X124950000Y-38600000D03*
D11*
X111340000Y-74000000D03*
X109340000Y-74000000D03*
X114900000Y-66000000D03*
X112900000Y-66000000D03*
X153000000Y-65000000D03*
X155000000Y-65000000D03*
X163000000Y-65000000D03*
X165000000Y-65000000D03*
X153000000Y-71000000D03*
X155000000Y-71000000D03*
X165000000Y-71000000D03*
X163000000Y-71000000D03*
X173951854Y-57749480D03*
X175951854Y-57749480D03*
X165750000Y-35000000D03*
X167750000Y-35000000D03*
X167750000Y-39000000D03*
X165750000Y-39000000D03*
X165750000Y-43000000D03*
X167750000Y-43000000D03*
X167750000Y-47000000D03*
X165750000Y-47000000D03*
X144300000Y-60000000D03*
X146300000Y-60000000D03*
X126800000Y-62000000D03*
X128800000Y-62000000D03*
X128800000Y-60000000D03*
X126800000Y-60000000D03*
X126800000Y-58000000D03*
X128800000Y-58000000D03*
X128800000Y-56000000D03*
X126800000Y-56000000D03*
X144300000Y-48000000D03*
X146300000Y-48000000D03*
X144300000Y-52000000D03*
X146300000Y-52000000D03*
X146300000Y-56000000D03*
X144300000Y-56000000D03*
X151600000Y-58450000D03*
X153600000Y-58450000D03*
X157600000Y-58450000D03*
X155600000Y-58450000D03*
X146300000Y-46000000D03*
X144300000Y-46000000D03*
X146300000Y-50000000D03*
X144300000Y-50000000D03*
X144300000Y-54000000D03*
X146300000Y-54000000D03*
X146300000Y-58000000D03*
X144300000Y-58000000D03*
X161600000Y-58450000D03*
X159600000Y-58450000D03*
X163600000Y-58450000D03*
X165600000Y-58450000D03*
X167600000Y-58450000D03*
X169600000Y-58450000D03*
X146300000Y-66000000D03*
X144300000Y-66000000D03*
X126800000Y-48000000D03*
X128800000Y-48000000D03*
X126800000Y-50000000D03*
X128800000Y-50000000D03*
X128800000Y-52000000D03*
X126800000Y-52000000D03*
X126800000Y-54000000D03*
X128800000Y-54000000D03*
D12*
X123000000Y-77700000D03*
X123000000Y-75700000D03*
X130000000Y-75700000D03*
X130000000Y-77700000D03*
X137000000Y-77700000D03*
X137000000Y-75700000D03*
X144000000Y-75700000D03*
X144000000Y-77700000D03*
D11*
X191500000Y-65000000D03*
X193500000Y-65000000D03*
X193500000Y-69000000D03*
X191500000Y-69000000D03*
X193500000Y-43000000D03*
X191500000Y-43000000D03*
X191500000Y-47000000D03*
X193500000Y-47000000D03*
X144300000Y-44000000D03*
X146300000Y-44000000D03*
D12*
X107500000Y-40000000D03*
X107500000Y-42000000D03*
X107500000Y-47000000D03*
X107500000Y-45000000D03*
D11*
X110500000Y-46700000D03*
X112500000Y-46700000D03*
X116000000Y-40000000D03*
X114000000Y-40000000D03*
X116000000Y-36500000D03*
X114000000Y-36500000D03*
D12*
X124990000Y-42390000D03*
X124990000Y-44390000D03*
D11*
X144300000Y-62000000D03*
X146300000Y-62000000D03*
X146300000Y-64000000D03*
X144300000Y-64000000D03*
X144300000Y-68000000D03*
X146300000Y-68000000D03*
D12*
X186650000Y-40750000D03*
X186650000Y-38750000D03*
X182650000Y-38750000D03*
X182650000Y-40750000D03*
X184650000Y-38750000D03*
X184650000Y-40750000D03*
X151000000Y-77700000D03*
X151000000Y-75700000D03*
X158000000Y-75700000D03*
X158000000Y-77700000D03*
X165000000Y-77700000D03*
X165000000Y-75700000D03*
X172000000Y-75700000D03*
X172000000Y-77700000D03*
D37*
X187000000Y-76000000D03*
X184500000Y-76000000D03*
X189500000Y-76000000D03*
D36*
X182400000Y-72700000D03*
X191600000Y-72700000D03*
D20*
X114950000Y-68900000D03*
X113050000Y-68900000D03*
X113050000Y-71100000D03*
X114000000Y-71100000D03*
X114950000Y-71100000D03*
D18*
X117300000Y-60150000D03*
X112700000Y-60150000D03*
X115000000Y-60150000D03*
D17*
X115000000Y-53850000D03*
D22*
X117865000Y-34500000D03*
X121135000Y-34500000D03*
D39*
X105000000Y-41000000D03*
X105000000Y-45400000D03*
D33*
X109750000Y-77000000D03*
D32*
X111000000Y-77000000D03*
D24*
X196000000Y-51480000D03*
X196000000Y-54020000D03*
X196000000Y-56560000D03*
D23*
X196000000Y-59100000D03*
D28*
X188680000Y-64360000D03*
X185280000Y-64360000D03*
D12*
X182670000Y-68040000D03*
X182670000Y-66040000D03*
D11*
X172000000Y-71000000D03*
X170000000Y-71000000D03*
M02*
