M48
;DRILL file {KiCad no-vcs-found-7650~57~ubuntu14.04.1} date Mon Feb 13 23:40:07 2017
;FORMAT={-:-/ absolute / metric / decimal}
FMAT,2
METRIC,TZ
T1C0.300
T2C0.500
T3C0.600
T4C1.000
T5C1.800
T6C2.500
T7C3.200
T8C1.000
%
G90
G05
M71
T1
X107.7Y-71.7
X107.7Y-122.
X108.41Y-50.1
X108.41Y-100.4
X108.86Y-71.66
X108.86Y-121.96
X110.Y-56.48
X110.Y-106.78
X110.08Y-64.04
X110.08Y-114.34
X110.25Y-36.51
X110.25Y-86.81
X112.69Y-74.
X112.69Y-124.3
X113.62Y-41.51
X113.62Y-91.81
X113.85Y-62.48
X113.85Y-112.78
X114.51Y-58.04
X114.51Y-108.34
X117.39Y-38.
X117.39Y-88.3
X119.79Y-67.05
X119.79Y-117.35
X120.11Y-51.35
X120.11Y-101.65
X122.37Y-62.14
X122.37Y-112.44
X122.42Y-50.79
X122.42Y-57.94
X122.42Y-101.09
X122.42Y-108.24
X122.44Y-63.24
X122.44Y-113.54
X122.64Y-35.7
X122.64Y-86.
X122.77Y-60.21
X122.77Y-110.51
X123.Y-74.38
X123.Y-124.68
X123.59Y-51.16
X123.59Y-101.46
X124.39Y-52.87
X124.39Y-103.17
X125.Y-71.5
X125.Y-121.8
X128.44Y-42.09
X128.44Y-92.39
X129.85Y-45.29
X129.85Y-95.59
X130.Y-74.58
X130.Y-124.88
X130.23Y-71.79
X130.23Y-122.09
X130.54Y-59.16
X130.54Y-109.46
X131.02Y-68.16
X131.02Y-118.46
X131.03Y-56.97
X131.03Y-107.27
X131.049Y-61.05
X131.049Y-111.35
X131.13Y-54.87
X131.13Y-105.17
X131.14Y-63.
X131.14Y-113.3
X131.19Y-66.93
X131.19Y-117.23
X131.26Y-63.97
X131.26Y-114.27
X131.31Y-64.96
X131.31Y-115.26
X132.8Y-42.98
X132.8Y-93.28
X132.88Y-57.08
X132.88Y-107.38
X134.93Y-55.1
X134.93Y-105.4
X134.94Y-52.26
X134.94Y-102.56
X135.01Y-49.1
X135.01Y-99.4
X135.44Y-53.56
X135.44Y-103.86
X135.46Y-66.079
X135.46Y-116.379
X135.59Y-51.67
X135.59Y-101.97
X135.64Y-48.4
X135.64Y-98.7
X136.48Y-67.09
X136.48Y-117.39
X137.Y-74.58
X137.Y-124.88
X137.1Y-65.73
X137.1Y-116.03
X137.15Y-49.94
X137.15Y-100.24
X137.37Y-51.28
X137.37Y-101.58
X137.77Y-62.48
X137.77Y-112.78
X137.79Y-56.
X137.79Y-106.3
X138.33Y-66.01
X138.33Y-116.31
X138.54Y-59.65
X138.54Y-109.95
X138.56Y-57.39
X138.56Y-107.69
X138.74Y-67.56
X138.74Y-117.86
X138.909Y-68.37
X138.909Y-118.67
X142.16Y-62.9
X142.16Y-113.2
X142.25Y-69.325
X142.25Y-119.625
X142.47Y-44.99
X142.47Y-95.29
X143.425Y-69.425
X143.425Y-119.725
X144.Y-74.58
X144.Y-124.88
X145.31Y-55.
X145.31Y-105.3
X146.12Y-69.83
X146.12Y-120.13
X147.99Y-68.99
X147.99Y-119.29
X148.15Y-61.02
X148.15Y-111.32
X148.69Y-71.08
X148.69Y-121.38
X149.45Y-64.92
X149.45Y-115.22
X150.09Y-56.45
X150.09Y-106.75
X150.82Y-64.85
X150.82Y-115.15
X150.99Y-72.443
X150.99Y-74.669
X150.99Y-122.743
X150.99Y-124.969
X151.2Y-66.33
X151.2Y-116.63
X151.6Y-47.34
X151.6Y-97.64
X154.56Y-60.02
X154.56Y-110.32
X155.84Y-61.17
X155.84Y-111.47
X156.27Y-72.51
X156.27Y-122.81
X156.37Y-69.61
X156.37Y-119.91
X156.48Y-45.02
X156.48Y-95.32
X156.68Y-62.79
X156.68Y-113.09
X158.Y-74.62
X158.Y-124.92
X158.23Y-64.48
X158.23Y-114.78
X159.04Y-66.78
X159.04Y-117.08
X159.62Y-66.07
X159.62Y-116.37
X159.63Y-61.11
X159.63Y-111.41
X161.35Y-73.03
X161.35Y-123.33
X161.45Y-62.79
X161.45Y-113.09
X162.85Y-60.1
X162.85Y-110.4
X165.Y-74.61
X165.Y-124.91
X166.6Y-55.25
X166.6Y-105.55
X167.09Y-62.6
X167.09Y-112.9
X169.22Y-49.18
X169.22Y-99.48
X169.4Y-51.2
X169.4Y-101.5
X169.41Y-50.35
X169.41Y-100.65
X170.59Y-69.03
X170.59Y-119.33
X171.03Y-56.69
X171.03Y-106.99
X171.15Y-58.45
X171.15Y-108.75
X171.65Y-60.08
X171.65Y-110.38
X172.Y-74.54
X172.Y-124.84
X172.16Y-69.64
X172.16Y-119.94
X175.89Y-60.99
X175.89Y-111.29
X176.17Y-69.08
X176.17Y-119.38
X176.898Y-68.426
X176.898Y-118.726
X177.68Y-49.77
X177.68Y-100.07
X177.7Y-55.24
X177.7Y-105.54
X181.23Y-57.31
X181.23Y-107.61
X183.03Y-55.83
X183.03Y-106.13
X183.37Y-57.95
X183.37Y-108.25
X188.325Y-48.
X188.325Y-98.3
X189.06Y-51.87
X189.06Y-102.17
T2
X107.Y-35.35
X107.Y-85.65
X109.75Y-77.
X109.75Y-127.3
X111.Y-77.
X111.Y-127.3
X127.48Y-69.74
X127.48Y-120.04
X178.55Y-32.47
X178.55Y-82.77
T3
X155.Y-35.92
X155.Y-38.46
X155.Y-41.
X155.Y-43.54
X155.Y-46.08
X155.Y-48.62
X155.Y-86.22
X155.Y-88.76
X155.Y-91.3
X155.Y-93.84
X155.Y-96.38
X155.Y-98.92
X162.62Y-35.92
X162.62Y-38.46
X162.62Y-41.
X162.62Y-43.54
X162.62Y-46.08
X162.62Y-48.62
X162.62Y-86.22
X162.62Y-88.76
X162.62Y-91.3
X162.62Y-93.84
X162.62Y-96.38
X162.62Y-98.92
X183.73Y-35.
X183.73Y-85.3
X185.Y-35.
X185.Y-85.3
X185.28Y-64.36
X185.28Y-114.66
X186.27Y-35.
X186.27Y-85.3
X187.54Y-35.
X187.54Y-85.3
X188.68Y-64.36
X188.68Y-114.66
T4
X137.Y-41.
X137.Y-91.3
X147.Y-41.
X147.Y-91.3
X170.21Y-35.
X170.21Y-39.
X170.21Y-43.
X170.21Y-47.
X170.21Y-85.3
X170.21Y-89.3
X170.21Y-93.3
X170.21Y-97.3
X172.75Y-35.
X172.75Y-39.
X172.75Y-43.
X172.75Y-47.
X172.75Y-85.3
X172.75Y-89.3
X172.75Y-93.3
X172.75Y-97.3
X175.29Y-35.
X175.29Y-39.
X175.29Y-43.
X175.29Y-47.
X175.29Y-85.3
X175.29Y-89.3
X175.29Y-93.3
X175.29Y-97.3
X184.5Y-76.
X184.5Y-126.3
X187.Y-76.
X187.Y-126.3
X189.5Y-76.
X189.5Y-126.3
X196.Y-38.46
X196.Y-41.
X196.Y-43.54
X196.Y-46.08
X196.Y-51.48
X196.Y-54.02
X196.Y-56.56
X196.Y-59.1
X196.Y-63.46
X196.Y-66.
X196.Y-68.54
X196.Y-71.08
X196.Y-88.76
X196.Y-91.3
X196.Y-93.84
X196.Y-96.38
X196.Y-101.78
X196.Y-104.32
X196.Y-106.86
X196.Y-109.4
X196.Y-113.76
X196.Y-116.3
X196.Y-118.84
X196.Y-121.38
T6
X119.Y-76.7
X119.Y-127.
X126.Y-76.7
X126.Y-127.
X133.Y-76.7
X133.Y-127.
X140.Y-76.7
X140.Y-127.
X147.Y-76.7
X147.Y-127.
X154.Y-76.7
X154.Y-127.
X161.Y-76.7
X161.Y-127.
X168.Y-76.7
X168.Y-127.
X175.Y-76.7
X175.Y-127.
T7
X103.Y-33.
X103.Y-76.7
X103.Y-83.3
X103.Y-127.
X197.Y-33.
X197.Y-76.7
X197.Y-83.3
X197.Y-127.
T8
X105.Y-41.
X105.Y-45.4
X105.Y-91.3
X105.Y-95.7
T5
X182.4Y-72.55G85X182.4Y-72.85
G05
X182.4Y-122.85G85X182.4Y-123.15
G05
X191.6Y-72.55G85X191.6Y-72.85
G05
X191.6Y-122.85G85X191.6Y-123.15
G05
T0
M30
